<mxfile modified="2022-02-21T19:01:46.434Z" host="app.diagrams.net" agent="5.0 (Windows NT 10.0; Win64; x64) AppleWebKit/537.36 (KHTML, like Gecko) Chrome/98.0.4758.102 Safari/537.36" etag="nxebFdpNzoI4vI0v1zvQ" version="16.6.1" type="github">
  <diagram id="Ht1M8jgEwFfnCIfOTk4-" name="Page-1">
    <mxGraphModel dx="1157" dy="1427" grid="1" gridSize="10" guides="1" tooltips="1" connect="1" arrows="1" fold="1" page="1" pageScale="1" pageWidth="1169" pageHeight="827" math="0" shadow="0">
      <root>
        <mxCell id="0" />
        <mxCell id="1" parent="0" />
        <mxCell id="kkqo6Z0dC3-RWE58HF3n-47" value="" style="rounded=0;whiteSpace=wrap;html=1;labelBackgroundColor=default;fontSize=12;" vertex="1" parent="1">
          <mxGeometry x="240" y="-750" width="680" height="130" as="geometry" />
        </mxCell>
        <mxCell id="kkqo6Z0dC3-RWE58HF3n-4" value="" style="rounded=0;whiteSpace=wrap;html=1;" vertex="1" parent="1">
          <mxGeometry x="221.75" y="-560" width="780" height="380" as="geometry" />
        </mxCell>
        <mxCell id="UEzPUAAOIrF-is8g5C7q-177" value="MinIO" style="outlineConnect=0;fontColor=#232F3E;gradientColor=none;fillColor=#277116;strokeColor=none;dashed=0;verticalLabelPosition=bottom;verticalAlign=top;align=center;html=1;fontSize=12;fontStyle=0;aspect=fixed;pointerEvents=1;shape=mxgraph.aws4.bucket;labelBackgroundColor=#ffffff;" parent="1" vertex="1">
          <mxGeometry x="625" y="-301" width="75" height="78" as="geometry" />
        </mxCell>
        <mxCell id="kkqo6Z0dC3-RWE58HF3n-58" value="" style="edgeStyle=orthogonalEdgeStyle;rounded=0;orthogonalLoop=1;jettySize=auto;html=1;fontSize=12;" edge="1" parent="1" source="UEzPUAAOIrF-is8g5C7q-179" target="kkqo6Z0dC3-RWE58HF3n-48">
          <mxGeometry relative="1" as="geometry" />
        </mxCell>
        <mxCell id="UEzPUAAOIrF-is8g5C7q-179" value="Instância com&lt;br&gt;Caprover" style="outlineConnect=0;fontColor=#232F3E;gradientColor=#F54749;gradientDirection=north;fillColor=#C7131F;strokeColor=#ffffff;dashed=0;verticalLabelPosition=bottom;verticalAlign=top;align=center;html=1;fontSize=12;fontStyle=0;aspect=fixed;shape=mxgraph.aws4.resourceIcon;resIcon=mxgraph.aws4.organizations;labelBackgroundColor=#ffffff;" parent="1" vertex="1">
          <mxGeometry x="535" y="-415.52" width="78" height="78" as="geometry" />
        </mxCell>
        <mxCell id="kkqo6Z0dC3-RWE58HF3n-5" value="Projeto Área Administrativa" style="text;strokeColor=none;fillColor=none;html=1;fontSize=17;fontStyle=1;verticalAlign=middle;align=center;labelBackgroundColor=default;" vertex="1" parent="1">
          <mxGeometry x="403" y="-675" width="330" height="40" as="geometry" />
        </mxCell>
        <mxCell id="kkqo6Z0dC3-RWE58HF3n-7" value="" style="shape=image;verticalLabelPosition=bottom;labelBackgroundColor=#ffffff;verticalAlign=top;aspect=fixed;imageAspect=0;image=data:image/svg+xml,PHN2ZyB4bWxuczpjYz0iaHR0cDovL2NyZWF0aXZlY29tbW9ucy5vcmcvbnMjIiB4bWxuczpkYz0iaHR0cDovL3B1cmwub3JnL2RjL2VsZW1lbnRzLzEuMS8iIHhtbG5zOmlua3NjYXBlPSJodHRwOi8vd3d3Lmlua3NjYXBlLm9yZy9uYW1lc3BhY2VzL2lua3NjYXBlIiB4bWxuczpyZGY9Imh0dHA6Ly93d3cudzMub3JnLzE5OTkvMDIvMjItcmRmLXN5bnRheC1ucyMiIHhtbG5zOnNvZGlwb2RpPSJodHRwOi8vc29kaXBvZGkuc291cmNlZm9yZ2UubmV0L0RURC9zb2RpcG9kaS0wLmR0ZCIgeG1sbnM6c3ZnPSJodHRwOi8vd3d3LnczLm9yZy8yMDAwL3N2ZyIgeG1sbnM9Imh0dHA6Ly93d3cudzMub3JnLzIwMDAvc3ZnIiB4bWxuczp4bGluaz0iaHR0cDovL3d3dy53My5vcmcvMTk5OS94bGluayIgdmVyc2lvbj0iMS4xIiBpZD0ic3ZnMjU4NTk0IiBpbmtzY2FwZTp2ZXJzaW9uPSIwLjkyLjMgKDI0MDU1NDYsIDIwMTgtMDMtMTEpIiBzb2RpcG9kaTpkb2NuYW1lPSJnZW5lcmljX3NlcnZlci5zdmciIHg9IjBweCIgeT0iMHB4IiB2aWV3Qm94PSIwIDAgNDguNDEgNjkuNzYiIHN0eWxlPSJlbmFibGUtYmFja2dyb3VuZDpuZXcgMCAwIDQ4LjQxIDY5Ljc2OyIgeG1sOnNwYWNlPSJwcmVzZXJ2ZSI+JiN4YTs8c29kaXBvZGk6bmFtZWR2aWV3IGJvcmRlcmNvbG9yPSIjNjY2NjY2IiBib3JkZXJvcGFjaXR5PSIxIiBmaXQtbWFyZ2luLWJvdHRvbT0iMCIgZml0LW1hcmdpbi1sZWZ0PSIwIiBmaXQtbWFyZ2luLXJpZ2h0PSIwIiBmaXQtbWFyZ2luLXRvcD0iMCIgZ3JpZHRvbGVyYW5jZT0iMTAiIGd1aWRldG9sZXJhbmNlPSIxMCIgaWQ9Im5hbWVkdmlldzI1ODU5NiIgaW5rc2NhcGU6Y3VycmVudC1sYXllcj0ic3ZnMjU4NTk0IiBpbmtzY2FwZTpjeD0iMzIuMTkwODk3IiBpbmtzY2FwZTpjeT0iNDYuNTA4MzQ2IiBpbmtzY2FwZTpwYWdlb3BhY2l0eT0iMCIgaW5rc2NhcGU6cGFnZXNoYWRvdz0iMiIgaW5rc2NhcGU6d2luZG93LWhlaWdodD0iMTAxNyIgaW5rc2NhcGU6d2luZG93LW1heGltaXplZD0iMSIgaW5rc2NhcGU6d2luZG93LXdpZHRoPSIxOTIwIiBpbmtzY2FwZTp3aW5kb3cteD0iLTgiIGlua3NjYXBlOndpbmRvdy15PSItOCIgaW5rc2NhcGU6em9vbT0iOS4xMjUzNjg5IiBvYmplY3R0b2xlcmFuY2U9IjEwIiBwYWdlY29sb3I9IiNmZmZmZmYiIHNob3dncmlkPSJmYWxzZSI+JiN4YTsJPC9zb2RpcG9kaTpuYW1lZHZpZXc+JiN4YTs8ZyBpZD0iZzI1ODU5MiIgdHJhbnNmb3JtPSJ0cmFuc2xhdGUoLTAuNzUsLTAuNzUwMDM4NzgpIj4mI3hhOwk8dGl0bGUgaWQ9InRpdGxlMjU4NTExIj5QYWdlLTE8L3RpdGxlPiYjeGE7CTxnIGlkPSJncm91cDEwODY2LTEiIHRyYW5zZm9ybT0idHJhbnNsYXRlKDEuNSwtMS41KSI+JiN4YTsJCTx0aXRsZSBpZD0idGl0bGUyNTg1MTMiPkdlbmVyaWMgU2VydmVyPC90aXRsZT4mI3hhOwkJPGcgaWQ9Imdyb3VwMTA4NjctMiIgdHJhbnNmb3JtPSJ0cmFuc2xhdGUoMCwtMC4wMDczOTg3NikiPiYjeGE7CQkJPHRpdGxlIGlkPSJ0aXRsZTI1ODUxNSI+ZzE1NDMzLjExNzIxPC90aXRsZT4mI3hhOwkJCTxnIGlkPSJzaGFwZTEwODY4LTMiPiYjeGE7CQkJCTx0aXRsZSBpZD0idGl0bGUyNTg1MTciPnJlY3QxNTQwNTwvdGl0bGU+JiN4YTsJCQkJJiN4YTsJCQkJCTxyZWN0IGlkPSJyZWN0MjU4NTE5IiB5PSIzLjAxIiBzdHlsZT0iZmlsbDojRkZGRkZGO3N0cm9rZTojNTU2QThBO3N0cm9rZS13aWR0aDoxLjU7c3Ryb2tlLW1pdGVybGltaXQ6MzsiIHdpZHRoPSIzOS43NSIgaGVpZ2h0PSI2OC4yNSIvPiYjeGE7CQkJPC9nPiYjeGE7CQkJPGcgaWQ9Imdyb3VwMTA4NjktNSIgdHJhbnNmb3JtPSJ0cmFuc2xhdGUoMS41LC0wLjc1KSI+JiN4YTsJCQkJPHRpdGxlIGlkPSJ0aXRsZTI1ODUyMiI+ZzE1NDI1PC90aXRsZT4mI3hhOwkJCQk8ZyBpZD0ic2hhcGUxMDg3MC02IiB0cmFuc2Zvcm09InRyYW5zbGF0ZSgxOCkiPiYjeGE7CQkJCQk8dGl0bGUgaWQ9InRpdGxlMjU4NTI0Ij5yZWN0MTU0MDc8L3RpdGxlPiYjeGE7CQkJCQk8cmVjdCBpZD0icmVjdDI1ODUyNiIgeT0iNC41MSIgc3R5bGU9ImZpbGw6I0U1RTVFNTsiIHdpZHRoPSIxOS41IiBoZWlnaHQ9IjY2Ljc1Ii8+JiN4YTsJCQkJPC9nPiYjeGE7CQkJCTxnIGlkPSJzaGFwZTEwODcxLTgiIHRyYW5zZm9ybT0idHJhbnNsYXRlKDAsLTQ4KSI+JiN4YTsJCQkJCTx0aXRsZSBpZD0idGl0bGUyNTg1MjkiPnJlY3QxNTQwOTwvdGl0bGU+JiN4YTsJCQkJCTxyZWN0IGlkPSJyZWN0MjU4NTMxIiB5PSI2OS4wMSIgc3R5bGU9ImZpbGw6IzJCQzdGNDsiIHdpZHRoPSIxOCIgaGVpZ2h0PSIyLjI1Ii8+JiN4YTsJCQkJPC9nPiYjeGE7CQkJCTxnIGlkPSJzaGFwZTEwODcyLTEwIiB0cmFuc2Zvcm09InRyYW5zbGF0ZSgwLC01OC41KSI+JiN4YTsJCQkJCTx0aXRsZSBpZD0idGl0bGUyNTg1MzQiPnBvbHlnb24xNTQxMTwvdGl0bGU+JiN4YTsJCQkJCTxyZWN0IGlkPSJyZWN0MjU4NTM2IiB5PSI2OS4wMSIgc3R5bGU9ImZpbGw6bm9uZTsiIHdpZHRoPSIyNyIgaGVpZ2h0PSIyLjI1Ii8+JiN4YTsJCQkJPC9nPiYjeGE7CQkJCTxnIGlkPSJzaGFwZTEwODczLTEyIiB0cmFuc2Zvcm09InRyYW5zbGF0ZSgwLC01OC41KSI+JiN4YTsJCQkJCTx0aXRsZSBpZD0idGl0bGUyNTg1MzkiPnBvbHlsaW5lMTU0MTM8L3RpdGxlPiYjeGE7CQkJCQk8cmVjdCBpZD0icmVjdDI1ODU0MSIgeT0iNjkuMDEiIHN0eWxlPSJmaWxsOm5vbmU7IiB3aWR0aD0iMjciIGhlaWdodD0iMi4yNSIvPiYjeGE7CQkJCTwvZz4mI3hhOwkJCQk8ZyBpZD0ic2hhcGUxMDg3NC0xNCIgdHJhbnNmb3JtPSJ0cmFuc2xhdGUoMCwtNTMuMjUpIj4mI3hhOwkJCQkJPHRpdGxlIGlkPSJ0aXRsZTI1ODU0NCI+cmVjdDE1NDE1PC90aXRsZT4mI3hhOwkJCQkJPHJlY3QgaWQ9InJlY3QyNTg1NDYiIHk9IjY5LjAxIiBzdHlsZT0iZmlsbDojMkJDN0Y0OyIgd2lkdGg9IjE4IiBoZWlnaHQ9IjIuMjUiLz4mI3hhOwkJCQk8L2c+JiN4YTsJCQkJPGcgaWQ9InNoYXBlMTA4NzUtMTYiIHRyYW5zZm9ybT0idHJhbnNsYXRlKDAsLTU4LjUpIj4mI3hhOwkJCQkJPHRpdGxlIGlkPSJ0aXRsZTI1ODU0OSI+cmVjdDE1NDE3PC90aXRsZT4mI3hhOwkJCQkJPHJlY3QgaWQ9InJlY3QyNTg1NTEiIHk9IjY5LjAxIiBzdHlsZT0iZmlsbDojMkJDN0Y0OyIgd2lkdGg9IjE4IiBoZWlnaHQ9IjIuMjUiLz4mI3hhOwkJCQk8L2c+JiN4YTsJCQkJPGcgaWQ9InNoYXBlMTA4NzYtMTgiIHRyYW5zZm9ybT0idHJhbnNsYXRlKDE4LC00OCkiPiYjeGE7CQkJCQk8dGl0bGUgaWQ9InRpdGxlMjU4NTU0Ij5yZWN0MTU0MTk8L3RpdGxlPiYjeGE7CQkJCQk8cmVjdCBpZD0icmVjdDI1ODU1NiIgeT0iNjkuMDEiIHN0eWxlPSJmaWxsOiM1NTZBOEE7IiB3aWR0aD0iMTkuNSIgaGVpZ2h0PSIyLjI1Ii8+JiN4YTsJCQkJPC9nPiYjeGE7CQkJCTxnIGlkPSJzaGFwZTEwODc3LTIwIiB0cmFuc2Zvcm09InRyYW5zbGF0ZSgxOCwtNTMuMjUpIj4mI3hhOwkJCQkJPHRpdGxlIGlkPSJ0aXRsZTI1ODU1OSI+cmVjdDE1NDIxPC90aXRsZT4mI3hhOwkJCQkJPHJlY3QgaWQ9InJlY3QyNTg1NjEiIHk9IjY5LjAxIiBzdHlsZT0iZmlsbDojNTU2QThBOyIgd2lkdGg9IjE5LjUiIGhlaWdodD0iMi4yNSIvPiYjeGE7CQkJCTwvZz4mI3hhOwkJCQk8ZyBpZD0ic2hhcGUxMDg3OC0yMiIgdHJhbnNmb3JtPSJ0cmFuc2xhdGUoMTgsLTU4LjUpIj4mI3hhOwkJCQkJPHRpdGxlIGlkPSJ0aXRsZTI1ODU2NCI+cmVjdDE1NDIzPC90aXRsZT4mI3hhOwkJCQkJPHJlY3QgaWQ9InJlY3QyNTg1NjYiIHk9IjY5LjAxIiBzdHlsZT0iZmlsbDojNTU2QThBOyIgd2lkdGg9IjE5LjUiIGhlaWdodD0iMi4yNSIvPiYjeGE7CQkJCTwvZz4mI3hhOwkJCTwvZz4mI3hhOwkJCTxnIGlkPSJzaGFwZTEwODc5LTI0IiB0cmFuc2Zvcm09InRyYW5zbGF0ZSgwLjc1LC01OS4yNSkiPiYjeGE7CQkJCTx0aXRsZSBpZD0idGl0bGUyNTg1NzAiPnJlY3QxNTQyNzwvdGl0bGU+JiN4YTsJCQkJPHJlY3QgaWQ9InJlY3QyNTg1NzIiIHk9IjY5LjAxIiBzdHlsZT0iZmlsbDojNTU2QThBOyIgd2lkdGg9IjIuMjUiIGhlaWdodD0iMi4yNSIvPiYjeGE7CQkJPC9nPiYjeGE7CQkJPGcgaWQ9InNoYXBlMTA4ODAtMjYiIHRyYW5zZm9ybT0idHJhbnNsYXRlKDAuNzUsLTU0KSI+JiN4YTsJCQkJPHRpdGxlIGlkPSJ0aXRsZTI1ODU3NSI+cmVjdDE1NDI5PC90aXRsZT4mI3hhOwkJCQk8cmVjdCBpZD0icmVjdDI1ODU3NyIgeT0iNjkuMDEiIHN0eWxlPSJmaWxsOiM1NTZBOEE7IiB3aWR0aD0iMi4yNSIgaGVpZ2h0PSIyLjI1Ii8+JiN4YTsJCQk8L2c+JiN4YTsJCQk8ZyBpZD0ic2hhcGUxMDg4MS0yOCIgdHJhbnNmb3JtPSJ0cmFuc2xhdGUoMC43NSwtNDguNzUpIj4mI3hhOwkJCQk8dGl0bGUgaWQ9InRpdGxlMjU4NTgwIj5yZWN0MTU0MzE8L3RpdGxlPiYjeGE7CQkJCTxyZWN0IGlkPSJyZWN0MjU4NTgyIiB5PSI2OS4wMSIgc3R5bGU9ImZpbGw6IzU1NkE4QTsiIHdpZHRoPSIyLjI1IiBoZWlnaHQ9IjIuMjUiLz4mI3hhOwkJCTwvZz4mI3hhOwkJPC9nPiYjeGE7CQk8ZyBpZD0ic2hhcGUxMDg4Mi0zMCIgdHJhbnNmb3JtPSJ0cmFuc2xhdGUoMTMuNjk4MykiPiYjeGE7CQkJPHRpdGxlIGlkPSJ0aXRsZTI1ODU4NiI+cG9seWdvbjE1NDM1LjExNzM3PC90aXRsZT4mI3hhOwkJCSYjeGE7CQkJCTxwYXRoIGlkPSJwYXRoMjU4NTg4IiBpbmtzY2FwZTpjb25uZWN0b3ItY3VydmF0dXJlPSIwIiBzdHlsZT0iZmlsbDojRkZGRkZGO3N0cm9rZTojNTU2QThBO3N0cm9rZS13aWR0aDoxLjU7c3Ryb2tlLW1pdGVybGltaXQ6MzsiIGQ9IiAgICAgTTguMjcsNzEuMjZMMCw1Ny4wMmw4LjI3LTE0LjIzaDE2LjU1bDguMjcsMTQuMjNsLTguMjcsMTQuMjRIOC4yN3oiLz4mI3hhOwkJPC9nPiYjeGE7CTwvZz4mI3hhOzwvZz4mI3hhOzwvc3ZnPg==;fontSize=13;" vertex="1" parent="1">
          <mxGeometry x="550" y="-537.96" width="61" height="88.96" as="geometry" />
        </mxCell>
        <mxCell id="kkqo6Z0dC3-RWE58HF3n-13" value="" style="endArrow=classic;html=1;rounded=0;fontSize=17;" edge="1" parent="1" source="kkqo6Z0dC3-RWE58HF3n-7" target="UEzPUAAOIrF-is8g5C7q-179">
          <mxGeometry width="50" height="50" relative="1" as="geometry">
            <mxPoint x="480" y="-492" as="sourcePoint" />
            <mxPoint x="530" y="-542" as="targetPoint" />
            <Array as="points" />
          </mxGeometry>
        </mxCell>
        <mxCell id="kkqo6Z0dC3-RWE58HF3n-14" value="" style="endArrow=classic;html=1;rounded=0;fontSize=17;" edge="1" parent="1" source="UEzPUAAOIrF-is8g5C7q-179" target="UEzPUAAOIrF-is8g5C7q-177">
          <mxGeometry width="50" height="50" relative="1" as="geometry">
            <mxPoint x="350" y="-432" as="sourcePoint" />
            <mxPoint x="400" y="-482" as="targetPoint" />
          </mxGeometry>
        </mxCell>
        <mxCell id="kkqo6Z0dC3-RWE58HF3n-15" value="" style="endArrow=classic;html=1;rounded=0;fontSize=17;" edge="1" parent="1" source="UEzPUAAOIrF-is8g5C7q-179" target="kkqo6Z0dC3-RWE58HF3n-21">
          <mxGeometry width="50" height="50" relative="1" as="geometry">
            <mxPoint x="560" y="-392" as="sourcePoint" />
            <mxPoint x="361.0070671378094" y="-382" as="targetPoint" />
          </mxGeometry>
        </mxCell>
        <mxCell id="kkqo6Z0dC3-RWE58HF3n-16" value="" style="outlineConnect=0;dashed=0;verticalLabelPosition=bottom;verticalAlign=top;align=center;html=1;shape=mxgraph.aws3.elasticsearch_service;fillColor=#F58534;gradientColor=none;fontSize=17;" vertex="1" parent="1">
          <mxGeometry x="737.5" y="-319.5" width="67.5" height="81" as="geometry" />
        </mxCell>
        <mxCell id="kkqo6Z0dC3-RWE58HF3n-17" value="" style="endArrow=classic;html=1;rounded=0;fontSize=17;" edge="1" parent="1" source="UEzPUAAOIrF-is8g5C7q-179" target="kkqo6Z0dC3-RWE58HF3n-16">
          <mxGeometry width="50" height="50" relative="1" as="geometry">
            <mxPoint x="560" y="-392" as="sourcePoint" />
            <mxPoint x="610" y="-442" as="targetPoint" />
          </mxGeometry>
        </mxCell>
        <mxCell id="kkqo6Z0dC3-RWE58HF3n-20" value="" style="strokeWidth=2;html=1;shape=mxgraph.flowchart.database;whiteSpace=wrap;fontSize=17;" vertex="1" parent="1">
          <mxGeometry x="742.5" y="-421" width="91.5" height="90" as="geometry" />
        </mxCell>
        <mxCell id="kkqo6Z0dC3-RWE58HF3n-18" value="" style="shape=image;verticalLabelPosition=bottom;labelBackgroundColor=#ffffff;verticalAlign=top;aspect=fixed;imageAspect=0;image=data:image/svg+xml,PHN2ZyB4bWxuczpkYz0iaHR0cDovL3B1cmwub3JnL2RjL2VsZW1lbnRzLzEuMS8iIHhtbG5zOmNjPSJodHRwOi8vY3JlYXRpdmVjb21tb25zLm9yZy9ucyMiIHhtbG5zOnJkZj0iaHR0cDovL3d3dy53My5vcmcvMTk5OS8wMi8yMi1yZGYtc3ludGF4LW5zIyIgeG1sbnM6c3ZnPSJodHRwOi8vd3d3LnczLm9yZy8yMDAwL3N2ZyIgeG1sbnM9Imh0dHA6Ly93d3cudzMub3JnLzIwMDAvc3ZnIiB4bWxuczp4bGluaz0iaHR0cDovL3d3dy53My5vcmcvMTk5OS94bGluayIgeG1sbnM6c29kaXBvZGk9Imh0dHA6Ly9zb2RpcG9kaS5zb3VyY2Vmb3JnZS5uZXQvRFREL3NvZGlwb2RpLTAuZHRkIiB4bWxuczppbmtzY2FwZT0iaHR0cDovL3d3dy5pbmtzY2FwZS5vcmcvbmFtZXNwYWNlcy9pbmtzY2FwZSIgdmVyc2lvbj0iMS4xIiBpZD0iTGF5ZXJfMSIgeD0iMHB4IiB5PSIwcHgiIHZpZXdCb3g9IjAgMCA0Mi43NyA0NC4xMTAwMDEiIHhtbDpzcGFjZT0icHJlc2VydmUiIHNvZGlwb2RpOmRvY25hbWU9InNhcF9zZV9wb3N0cmVzcWwuc3ZnIiB3aWR0aD0iNDIuNzciIGhlaWdodD0iNDQuMTEwMDAxIiBpbmtzY2FwZTp2ZXJzaW9uPSIwLjkyLjMgKDI0MDU1NDYsIDIwMTgtMDMtMTEpIj48bWV0YWRhdGEgaWQ9Im1ldGFkYXRhNjA0NDkiPjxyZGY6UkRGPjxjYzpXb3JrIHJkZjphYm91dD0iIj48ZGM6Zm9ybWF0PmltYWdlL3N2Zyt4bWw8L2RjOmZvcm1hdD48ZGM6dHlwZSByZGY6cmVzb3VyY2U9Imh0dHA6Ly9wdXJsLm9yZy9kYy9kY21pdHlwZS9TdGlsbEltYWdlIi8+PGRjOnRpdGxlLz48L2NjOldvcms+PC9yZGY6UkRGPjwvbWV0YWRhdGE+PGRlZnMgaWQ9ImRlZnM2MDQ0NyIvPjxzb2RpcG9kaTpuYW1lZHZpZXcgcGFnZWNvbG9yPSIjZmZmZmZmIiBib3JkZXJjb2xvcj0iIzY2NjY2NiIgYm9yZGVyb3BhY2l0eT0iMSIgb2JqZWN0dG9sZXJhbmNlPSIxMCIgZ3JpZHRvbGVyYW5jZT0iMTAiIGd1aWRldG9sZXJhbmNlPSIxMCIgaW5rc2NhcGU6cGFnZW9wYWNpdHk9IjAiIGlua3NjYXBlOnBhZ2VzaGFkb3c9IjIiIGlua3NjYXBlOndpbmRvdy13aWR0aD0iMTkyMCIgaW5rc2NhcGU6d2luZG93LWhlaWdodD0iMTAxNyIgaWQ9Im5hbWVkdmlldzYwNDQ1IiBzaG93Z3JpZD0iZmFsc2UiIGZpdC1tYXJnaW4tdG9wPSIwIiBmaXQtbWFyZ2luLWxlZnQ9IjAiIGZpdC1tYXJnaW4tcmlnaHQ9IjAiIGZpdC1tYXJnaW4tYm90dG9tPSIwIiBpbmtzY2FwZTp6b29tPSIxLjAzMDMwMyIgaW5rc2NhcGU6Y3g9Ii0xOC4xNzUiIGlua3NjYXBlOmN5PSItMTc3LjIyIiBpbmtzY2FwZTp3aW5kb3cteD0iLTgiIGlua3NjYXBlOndpbmRvdy15PSItOCIgaW5rc2NhcGU6d2luZG93LW1heGltaXplZD0iMSIgaW5rc2NhcGU6Y3VycmVudC1sYXllcj0iTGF5ZXJfMSIvPiYjeGE7JiN4YTs8ZyBpZD0iZzYwNDQyIiB0cmFuc2Zvcm09InRyYW5zbGF0ZSgtMzE1LjU1LC0xOTkuNDIpIj4mI3hhOwk8ZGVmcyBpZD0iZGVmczYwNDAxIj4mI3hhOwkJPHJlY3QgaWQ9IlNWR0lEXzNfIiB4PSIzMTUuNSIgeT0iMTk5LjQyIiB3aWR0aD0iNDIuOTU5OTk5IiBoZWlnaHQ9IjQ0LjM2MDAwMSIvPiYjeGE7CTwvZGVmcz4mI3hhOwk8Y2xpcFBhdGggaWQ9IlNWR0lEXzRfIj4mI3hhOwkJPHVzZSB4bGluazpocmVmPSIjU1ZHSURfM18iIHN0eWxlPSJvdmVyZmxvdzp2aXNpYmxlIiBpZD0idXNlNjA0MDMiIHg9IjAiIHk9IjAiIHdpZHRoPSIxMDAlIiBoZWlnaHQ9IjEwMCUiLz4mI3hhOwk8L2NsaXBQYXRoPiYjeGE7CTxnIGNsaXAtcGF0aD0idXJsKCNTVkdJRF80XykiIGlkPSJnNjA0NDAiPiYjeGE7CQk8ZGVmcyBpZD0iZGVmczYwNDA3Ij4mI3hhOwkJCTxyZWN0IGlkPSJTVkdJRF81XyIgeD0iMzE1LjUiIHk9IjE5OS40MiIgd2lkdGg9IjQyLjk1OTk5OSIgaGVpZ2h0PSI0NC4zNjAwMDEiLz4mI3hhOwkJPC9kZWZzPiYjeGE7CQk8Y2xpcFBhdGggaWQ9IlNWR0lEXzZfIj4mI3hhOwkJCTx1c2UgeGxpbms6aHJlZj0iI1NWR0lEXzVfIiBzdHlsZT0ib3ZlcmZsb3c6dmlzaWJsZSIgaWQ9InVzZTYwNDA5IiB4PSIwIiB5PSIwIiB3aWR0aD0iMTAwJSIgaGVpZ2h0PSIxMDAlIi8+JiN4YTsJCTwvY2xpcFBhdGg+JiN4YTsJCTxwYXRoIGQ9Im0gMzQ3LjUxLDIzMS41MyBjIDAuMjgsLTIuMzQgMC4yLC0yLjY4IDEuOTQsLTIuMzEgbCAwLjQ0LDAuMDQgYyAxLjM0LDAuMDYgMy4wOSwtMC4yMSA0LjEyLC0wLjcgMi4yMiwtMS4wMyAzLjUzLC0yLjc0IDEuMzQsLTIuMjkgLTQuOTgsMS4wMiAtNS4zMiwtMC42NiAtNS4zMiwtMC42NiA1LjI2LC03LjgxIDcuNDYsLTE3LjcxIDUuNTYsLTIwLjE0IC01LjE4LC02LjYxIC0xNC4xNCwtMy40OSAtMTQuMjksLTMuNCBsIC0wLjA1LDAuMDEgYyAtMC45OSwtMC4yIC0yLjA5LC0wLjMzIC0zLjMyLC0wLjM0IC0yLjI2LC0wLjA0IC0zLjk2LDAuNTkgLTUuMjYsMS41NyAwLDAgLTE1Ljk4LC02LjU4IC0xNS4yNCw4LjI4IDAuMTYsMy4xNiA0LjUzLDIzLjkzIDkuNzUsMTcuNjYgMS45MSwtMi4yOSAzLjc2LC00LjI0IDMuNzYsLTQuMjQgMC45MiwwLjYxIDIuMDEsMC45MiAzLjE2LDAuODEgbCAwLjA5LC0wLjA4IGMgLTAuMDIsMC4yOSAtMC4wMSwwLjU2IDAuMDQsMC45IC0xLjM0LDEuNSAtMC45NCwxLjc2IC0zLjY0LDIuMzIgLTIuNzIsMC41NiAtMS4xMiwxLjU2IC0wLjA4LDEuODIgMS4yNywwLjMxIDQuMTksMC43NyA2LjE3LC0yIGwgLTAuMDgsMC4zMSBjIDAuNTIsMC40MiAwLjQ5LDMuMDMgMC41Niw0LjkgMC4wOCwxLjg3IDAuMiwzLjYxIDAuNTgsNC42NCAwLjM4LDEuMDIgMC44MywzLjY3IDQuMzYsMi45MSAyLjk0LC0wLjYzIDUuMiwtMS41NCA1LjQxLC0xMC4wMSIgY2xpcC1wYXRoPSJ1cmwoI1NWR0lEXzZfKSIgaWQ9InBhdGg2MDQxMiIgaW5rc2NhcGU6Y29ubmVjdG9yLWN1cnZhdHVyZT0iMCIvPiYjeGE7CQk8cG9seWdvbiBwb2ludHM9IjM0NS43MiwyMzAuOSAzNDUuNzIsMjMwLjkxIDM0NS43NCwyMzAuNzIgMzQ1Ljc0LDIzMC43MSAzNDUuNzYsMjMwLjUzIDM0NS43OSwyMzAuMzUgMzQ1Ljc5LDIzMC4zNCAzNDUuODEsMjMwLjE5IDM0NS44MSwyMzAuMTUgMzQ1LjgzLDIzMCAzNDUuODQsMjI5Ljk4IDM0NS44NiwyMjkuODUgMzQ1Ljg2LDIyOS44MSAzNDUuODksMjI5LjY5IDM0NS44OSwyMjkuNjQgMzQ1LjkyLDIyOS41MiAzNDUuOTMsMjI5LjQ2IDM0NS45NiwyMjkuMzUgMzQ1Ljk4LDIyOS4yNyAzNDYuMDEsMjI5LjE3IDM0Ni4wNCwyMjkuMDggMzQ2LjA3LDIyOC45OSAzNDYuMTEsMjI4Ljg4IDM0Ni4xNCwyMjguNzkgMzQ2LjIsMjI4LjY3IDM0Ni4yMywyMjguNiAzNDYuMzIsMjI4LjQ0IDM0Ni4zNiwyMjguMzggMzQ2LjQ3LDIyOC4yMiAzNDYuNTIsMjI4LjE2IDM0Ni42NywyMjcuOTkgMzQ2LjcyLDIyNy45NCAzNDYuODksMjI3Ljc5IDM0Ni45NSwyMjcuNzUgMzQ3LjE2LDIyNy42IDM0Ny4yMiwyMjcuNTcgMzQ3LjQxLDIyNy40OCAzNDcuNDcsMjI3LjQ1IDM0Ny42OSwyMjcuMzcgMzQ3Ljc2LDIyNy4zNSAzNDcuOTMsMjI3LjMxIDM0OC4wMSwyMjcuMjkgMzQ4LjE3LDIyNy4yNyAzNDguMjYsMjI3LjI2IDM0OC4zOSwyMjcuMjUgMzQ4LjQ5LDIyNy4yNSAzNDguNiwyMjcuMjUgMzQ4LjcsMjI3LjI1IDM0OC44LDIyNy4yNiAzNDguOTEsMjI3LjI2IDM0OC45NiwyMjcuMjcgMzQ5LjA4LDIyNy4yOCAzNDkuMTUsMjI3LjI5IDM0OS4yOCwyMjcuMzEgMzQ5LjMyLDIyNy4zMiAzNDkuNDYsMjI3LjM0IDM0OS41LDIyNy4zNSAzNDkuNjUsMjI3LjM4IDM0OS42NiwyMjcuMzggMzQ5LjgyLDIyNy40MSAzNDkuNjIsMjI3LjM4IDM1MC4wNiwyMjcuNDMgMzQ5Ljk0LDIyNy40MiAzNTAuMiwyMjcuNDMgMzUwLjE0LDIyNy40MiAzNTAuNCwyMjcuNDIgMzUwLjM2LDIyNy40MiAzNTAuNjIsMjI3LjQyIDM1MC41OCwyMjcuNDIgMzUwLjg1LDIyNy40IDM1MC44LDIyNy40MSAzNTEuMDgsMjI3LjM5IDM1MS4wNCwyMjcuMzkgMzUxLjMyLDIyNy4zNiAzNTEuMjcsMjI3LjM3IDM1MS41NSwyMjcuMzMgMzUxLjUxLDIyNy4zNCAzNTEuNzgsMjI3LjI5IDM1MS43NCwyMjcuMyAzNTIuMDEsMjI3LjI1IDM1MS45NiwyMjcuMjYgMzUyLjIzLDIyNy4yMSAzNTIuMTgsMjI3LjIyIDM1Mi40NCwyMjcuMTYgMzUyLjQsMjI3LjE3IDM1Mi42NSwyMjcuMSAzNTIuNTksMjI3LjEyIDM1Mi44MywyMjcuMDUgMzUyLjc3LDIyNy4wNyAzNTMsMjI2Ljk5IDM1Mi45MiwyMjcuMDIgMzUzLjE0LDIyNi45MyAzNTMuMDcsMjI2Ljk2IDM1My4yNywyMjYuODggMzUzLjIxLDIyNi45IDM1My40MSwyMjYuODEgMzUzLjM3LDIyNi44MyAzNTMuNTcsMjI2LjczIDM1My41MywyMjYuNzUgMzUzLjcyLDIyNi42NCAzNTMuNjgsMjI2LjY3IDM1My44NiwyMjYuNTYgMzUzLjgzLDIyNi41OCAzNTQsMjI2LjQ3IDM1My45NywyMjYuNDkgMzU0LjE0LDIyNi4zOCAzNTQuMSwyMjYuNDEgMzU0LjI2LDIyNi4zIDM1NC4yMiwyMjYuMzMgMzU0LjM3LDIyNi4yMiAzNTQuMzMsMjI2LjI1IDM1NC40OCwyMjYuMTQgMzU0LjQ0LDIyNi4xNyAzNTQuNTgsMjI2LjA2IDM1NC41MiwyMjYuMSAzNTQuNjUsMjI1Ljk5IDM1NC42MSwyMjYuMDMgMzU0LjcyLDIyNS45MiAzNTQuNjYsMjI1Ljk4IDM1NC43NywyMjUuODcgMzU0LjcxLDIyNS45NCAzNTQuOCwyMjUuODMgMzU0Ljc1LDIyNS45IDM1NC44MywyMjUuOCAzNTQuNzUsMjI1LjkgMzU0LjgyLDIyNS44IDM1NC43NSwyMjUuOTEgMzU0LjgsMjI1LjgyIDM1NC43MiwyMjUuOTcgMzU0Ljc2LDIyNS44OSAzNTQuNjgsMjI2LjA5IDM1NC43MSwyMjYuMDEgMzU0LjYzLDIyNi4yOCAzNTQuNjUsMjI2LjIgMzU0LjYyLDIyNi41NCAzNTQuNjIsMjI2LjQ3IDM1NC42OCwyMjYuOTQgMzU0LjY2LDIyNi44OCAzNTQuODUsMjI3LjMzIDM1NC44MiwyMjcuMjggMzU1LjEzLDIyNy42OCAzNTUuMDgsMjI3LjY0IDM1NS40NCwyMjcuOSAzNTUuMzcsMjI3Ljg3IDM1NS42OSwyMjguMDEgMzU1LjYxLDIyNy45OSAzNTUuOCwyMjguMDQgMzU1Ljc2LDIyOC4wMyAzNTUuODksMjI4LjA2IDM1NS44NCwyMjguMDUgMzU1LjkzLDIyOC4wNiAzNTUuODgsMjI4LjA2IDM1NS45NiwyMjguMDYgMzU1LjksMjI4LjA2IDM1NS45OSwyMjguMDYgMzU1LjkyLDIyOC4wNiAzNTYsMjI4LjA2IDM1NS45MywyMjguMDYgMzU1Ljk4LDIyOC4wNiAzNTUuOTEsMjI4LjA3IDM1NS45NywyMjguMDYgMzU1Ljg5LDIyOC4wNyAzNTUuOTQsMjI4LjA2IDM1NS44NiwyMjguMDcgMzU1LjkxLDIyOC4wNyAzNTUuODIsMjI4LjA4IDM1NS44NywyMjguMDcgMzU1Ljc4LDIyOC4wOSAzNTUuOCwyMjguMDggMzU1LjcsMjI4LjEgMzU1LjcxLDIyOC4xIDM1NS40OCwyMjguMTUgMzU1LjQ2LDIyOC4xNSAzNTUuMjQsMjI4LjE5IDM1NS4yMSwyMjguMiAzNTUsMjI4LjIzIDM1NC45OCwyMjguMjQgMzU0Ljc3LDIyOC4yNyAzNTQuNzUsMjI4LjI4IDM1NC41NCwyMjguMzEgMzU0LjUyLDIyOC4zMSAzNTQuMzIsMjI4LjM0IDM1NC4zLDIyOC4zNCAzNTQuMTEsMjI4LjM3IDM1NC4wOCwyMjguMzcgMzUzLjksMjI4LjM5IDM1My44NywyMjguMzkgMzUzLjY5LDIyOC40MSAzNTMuNjcsMjI4LjQxIDM1My41LDIyOC40MyAzNTMuNDcsMjI4LjQzIDM1My4zLDIyOC40NCAzNTMuMjcsMjI4LjQ0IDM1My4xMSwyMjguNDUgMzUzLjA4LDIyOC40NSAzNTIuOTIsMjI4LjQ2IDM1Mi45LDIyOC40NiAzNTIuNzUsMjI4LjQ2IDM1Mi43MiwyMjguNDYgMzUyLjU4LDIyOC40NyAzNTIuNTQsMjI4LjQ3IDM1Mi40LDIyOC40NiAzNTIuMzcsMjI4LjQ2IDM1Mi4yMywyMjguNDYgMzUyLjIsMjI4LjQ2IDM1Mi4wNywyMjguNDUgMzUyLjAzLDIyOC40NSAzNTEuOTEsMjI4LjQ0IDM1MS44NywyMjguNDQgMzUxLjc1LDIyOC40MyAzNTEuNzEsMjI4LjQzIDM1MS41OSwyMjguNDEgMzUxLjU2LDIyOC40MSAzNTEuNDUsMjI4LjQgMzUxLjQxLDIyOC4zOSAzNTEuMzEsMjI4LjM3IDM1MS4yNywyMjguMzcgMzUxLjE3LDIyOC4zNSAzNTEuMSwyMjguMzQgMzUwLjkxLDIyOC4zIDM1MC44MiwyMjguMjggMzUwLjY1LDIyOC4yMyAzNTAuNTYsMjI4LjIxIDM1MC40MSwyMjguMTYgMzUwLjMsMjI4LjEyIDM1MC4xNiwyMjguMDcgMzUwLjA2LDIyOC4wMyAzNDkuOTQsMjI3Ljk3IDM0OS44NCwyMjcuOTIgMzQ5LjczLDIyNy44NyAzNDkuNjIsMjI3LjgxIDM0OS41MiwyMjcuNzUgMzQ5LjQzLDIyNy42OCAzNDkuMzQsMjI3LjYyIDM0OS4yNCwyMjcuNTUgMzQ5LjE3LDIyNy40OSAzNDkuMDcsMjI3LjQxIDM0OS4wMSwyMjcuMzUgMzQ4LjkyLDIyNy4yNiAzNDguODYsMjI3LjIgMzQ4Ljc4LDIyNy4xIDM0OC43MywyMjcuMDUgMzQ4LjY2LDIyNi45NiAzNDguNjMsMjI2LjkxIDM0OC41NiwyMjYuODEgMzQ4LjUzLDIyNi43NyAzNDguNDcsMjI2LjY2IDM0OC40NCwyMjYuNjIgMzQ4LjM5LDIyNi41IDM0OC4zNywyMjYuNDcgMzQ4LjM0LDIyNi4zOCAzNDguMzIsMjI2LjM1IDM0OC4yOSwyMjYuMjUgMzQ4LjI4LDIyNi4yMyAzNDguMjcsMjI2LjIgMzQ4LjI3LDIyNi4xOSAzNDguMjEsMjI1Ljk0IDM0OC4yLDIyNS45MyAzNDguNDgsMjI0LjYxIDM0OC45NywyMjMuODcgMzQ4Ljk0LDIyMy45MSAzNDkuNDEsMjIzLjE2IDM0OS4zOSwyMjMuMiAzNDkuODMsMjIyLjQ0IDM0OS44MSwyMjIuNDggMzUwLjI0LDIyMS43MSAzNTAuMjIsMjIxLjc1IDM1MC42MywyMjAuOTggMzUwLjYyLDIyMS4wMSAzNTEuMDEsMjIwLjI0IDM1MC45OSwyMjAuMjcgMzUxLjM2LDIxOS41IDM1MS4zNSwyMTkuNTMgMzUxLjcsMjE4Ljc2IDM1MS42OSwyMTguNzkgMzUyLjAyLDIxOC4wMiAzNTIsMjE4LjA1IDM1Mi4zMiwyMTcuMjggMzUyLjMxLDIxNy4zMiAzNTIuNiwyMTYuNTUgMzUyLjU5LDIxNi41OSAzNTIuODYsMjE1LjgzIDM1Mi44NSwyMTUuODcgMzUzLjEsMjE1LjEyIDM1My4wOSwyMTUuMTYgMzUzLjMyLDIxNC40MiAzNTMuMzEsMjE0LjQ1IDM1My41MywyMTMuNzMgMzUzLjUxLDIxMy43NyAzNTMuNzEsMjEzLjA1IDM1My43LDIxMy4wOSAzNTMuODcsMjEyLjQgMzUzLjg2LDIxMi40NCAzNTQuMDEsMjExLjc2IDM1NCwyMTEuODEgMzU0LjEzLDIxMS4xNSAzNTQuMTIsMjExLjIgMzU0LjIyLDIxMC41NiAzNTQuMjIsMjEwLjYxIDM1NC4zLDIxMCAzNTQuMywyMTAuMDUgMzU0LjM2LDIwOS40NiAzNTQuMzUsMjA5LjUzIDM1NC4zOSwyMDguOTYgMzU0LjM5LDIwOS4wMyAzNTQuNDEsMjA4LjQ5IDM1NC40MSwyMDguNTcgMzU0LjQxLDIwOC4wNyAzNTQuNDEsMjA4LjE1IDM1NC4zOCwyMDcuNjggMzU0LjM5LDIwNy43OCAzNTQuMzQsMjA3LjM0IDM1NC4zNiwyMDcuNDYgMzU0LjI5LDIwNy4wNSAzNTQuMzIsMjA3LjE5IDM1NC4yMiwyMDYuODIgMzU0LjI3LDIwNi45OCAzNTQuMTUsMjA2LjY1IDM1NC4yMywyMDYuODQgMzU0LjA5LDIwNi41NSAzNTQuMjEsMjA2Ljc2IDM1NC4wNSwyMDYuNTIgMzU0LjE1LDIwNi42NSAzNTMuOSwyMDYuMzUgMzUzLjk0LDIwNi40IDM1My42OSwyMDYuMTEgMzUzLjczLDIwNi4xNiAzNTMuNDgsMjA1Ljg4IDM1My41MiwyMDUuOTIgMzUzLjI2LDIwNS42NiAzNTMuMzEsMjA1LjcxIDM1My4wNCwyMDUuNDYgMzUzLjA5LDIwNS41IDM1Mi44MiwyMDUuMjYgMzUyLjg3LDIwNS4zIDM1Mi42LDIwNS4wOCAzNTIuNjUsMjA1LjEyIDM1Mi4zNywyMDQuOTEgMzUyLjQyLDIwNC45NSAzNTIuMTQsMjA0Ljc1IDM1Mi4xOSwyMDQuNzggMzUxLjkxLDIwNC41OSAzNTEuOTgsMjA0LjY0IDM1MS40MSwyMDQuMyAzNTEuNTEsMjA0LjM2IDM1MC45MywyMDQuMDYgMzUxLjAzLDIwNC4xMSAzNTAuNDUsMjAzLjg1IDM1MC41NSwyMDMuODkgMzQ5Ljk2LDIwMy42NyAzNTAuMDUsMjAzLjcgMzQ5LjQ2LDIwMy41MiAzNDkuNTUsMjAzLjU0IDM0OC45NiwyMDMuMzkgMzQ5LjA1LDIwMy40MSAzNDguNDYsMjAzLjMgMzQ4LjU1LDIwMy4zMSAzNDcuOTcsMjAzLjIyIDM0OC4wNSwyMDMuMjMgMzQ3LjQ4LDIwMy4xNyAzNDcuNTUsMjAzLjE4IDM0Ni45OCwyMDMuMTQgMzQ3LjA1LDIwMy4xNCAzNDYuNSwyMDMuMTIgMzQ2LjU3LDIwMy4xMiAzNDYuMDMsMjAzLjEzIDM0Ni4wOSwyMDMuMTMgMzQ1LjU3LDIwMy4xNSAzNDUuNjMsMjAzLjE0IDM0NS4xMywyMDMuMTggMzQ1LjE4LDIwMy4xNyAzNDQuNzEsMjAzLjIyIDM0NC43NiwyMDMuMjIgMzQ0LjMsMjAzLjI3IDM0NC4zNSwyMDMuMjcgMzQzLjkyLDIwMy4zMyAzNDMuOTYsMjAzLjMzIDM0My41NiwyMDMuNCAzNDMuNjEsMjAzLjM5IDM0My4yNCwyMDMuNDYgMzQzLjI3LDIwMy40NiAzNDIuOTQsMjAzLjUzIDM0Mi45NywyMDMuNTIgMzQyLjY3LDIwMy42IDM0Mi43MSwyMDMuNTkgMzQyLjQ1LDIwMy42NiAzNDIuNDgsMjAzLjY1IDM0Mi4yNiwyMDMuNzEgMzQyLjI5LDIwMy43IDM0Mi4xMSwyMDMuNzYgMzQyLjE0LDIwMy43NSAzNDIuMDEsMjAzLjc5IDM0Mi4wNSwyMDMuNzggMzQyLDIwMy43OSAzNDIuMDEsMjAzLjc5IDM0MS45OCwyMDMuOCAzNDIuMDMsMjAzLjc4IDM0MiwyMDMuNzkgMzQyLjA3LDIwMy43NyAzNDIuMDUsMjAzLjc3IDM0MS41MywyMDMuOTIgMzQxLjQ4LDIwMy45MiAzNDAuOSwyMDMuOTEgMzQwLjUzLDIwMy44MyAzNDAuNTcsMjAzLjg0IDM0MC4xOSwyMDMuNzggMzQwLjIzLDIwMy43OCAzMzkuODMsMjAzLjczIDMzOS44OCwyMDMuNzMgMzM5LjQ3LDIwMy42OCAzMzkuNTEsMjAzLjY5IDMzOS4wOSwyMDMuNjUgMzM5LjEzLDIwMy42NSAzMzguNywyMDMuNjIgMzM4Ljc1LDIwMy42MyAzMzguMywyMDMuNiAzMzguMzQsMjAzLjYxIDMzNy44OCwyMDMuNTkgMzM3LjkzLDIwMy41OSAzMzcuNTIsMjAzLjYgMzM3LjU5LDIwMy41OSAzMzcuMTksMjAzLjYxIDMzNy4yNSwyMDMuNjEgMzM2Ljg2LDIwMy42NCAzMzYuOTMsMjAzLjYzIDMzNi41NiwyMDMuNjcgMzM2LjYzLDIwMy42NiAzMzYuMjcsMjAzLjcyIDMzNi4zNCwyMDMuNzEgMzM1Ljk4LDIwMy43OCAzMzYuMDYsMjAzLjc2IDMzNS43MSwyMDMuODUgMzM1Ljc5LDIwMy44MyAzMzUuNDYsMjAzLjkyIDMzNS41NCwyMDMuOSAzMzUuMjIsMjA0LjAxIDMzNS4yOSwyMDMuOTggMzM0Ljk4LDIwNC4xIDMzNS4wNSwyMDQuMDcgMzM0Ljc1LDIwNC4yIDMzNC44MywyMDQuMTcgMzM0LjU0LDIwNC4zMSAzMzQuNjEsMjA0LjI4IDMzNC4zMywyMDQuNDMgMzM0LjQsMjA0LjM5IDMzNC4xMywyMDQuNTUgMzM0LjIsMjA0LjUxIDMzMy45NCwyMDQuNjggMzM0LDIwNC42NCAzMzMuNzUsMjA0LjgyIDMzMi4wMiwyMDUuMDUgMzMyLjAxLDIwNS4wNSAzMzEuOTUsMjA1LjAyIDMzMS45MSwyMDUuMDEgMzMxLjkzLDIwNS4wMiAzMzEuODgsMjA1IDMzMS45LDIwNS4wMSAzMzEuODIsMjA0Ljk4IDMzMS44NCwyMDQuOTggMzMxLjc1LDIwNC45NSAzMzEuNjMsMjA0LjkgMzMxLjY1LDIwNC45MSAzMzEuNTEsMjA0Ljg2IDMzMS41MiwyMDQuODcgMzMxLjM3LDIwNC44MSAzMzEuMzgsMjA0LjgyIDMzMS4yMSwyMDQuNzYgMzMxLjIzLDIwNC43NiAzMzEuMDQsMjA0LjcgMzMxLjA1LDIwNC43IDMzMC44NSwyMDQuNjQgMzMwLjg3LDIwNC42NCAzMzAuNjUsMjA0LjU4IDMzMC42NiwyMDQuNTggMzMwLjQzLDIwNC41MSAzMzAuNDUsMjA0LjUyIDMzMC4yLDIwNC40NSAzMzAuMjIsMjA0LjQ1IDMyOS45NiwyMDQuMzggMzI5Ljk4LDIwNC4zOCAzMjkuNzEsMjA0LjMxIDMyOS43NCwyMDQuMzIgMzI5LjE2LDIwNC4xOCAzMjkuMjEsMjA0LjE5IDMyOC41OSwyMDQuMDUgMzI4LjY0LDIwNC4wNiAzMjcuOTksMjAzLjk0IDMyOC4wNSwyMDMuOTUgMzI3LjM3LDIwMy44NSAzMjcuNDQsMjAzLjg2IDMyNi43MywyMDMuNzggMzI2LjgxLDIwMy43OCAzMjYuMDksMjAzLjczIDMyNi4xOCwyMDMuNzQgMzI1LjQ1LDIwMy43MiAzMjUuNTUsMjAzLjcyIDMyNC44MSwyMDMuNzQgMzI0LjksMjAzLjczIDMyNC41MywyMDMuNzYgMzI0LjU5LDIwMy43NSAzMjQuMjIsMjAzLjc5IDMyNC4yOSwyMDMuNzggMzIzLjkyLDIwMy44MyAzMjMuOTksMjAzLjgyIDMyMy42MywyMDMuODggMzIzLjcsMjAzLjg3IDMyMy4zNCwyMDMuOTQgMzIzLjQyLDIwMy45MyAzMjMuMDcsMjA0LjAyIDMyMy4xNCwyMDQgMzIyLjc5LDIwNC4xIDMyMi44NywyMDQuMDcgMzIyLjUzLDIwNC4xOSAzMjIuNjIsMjA0LjE2IDMyMi4yOCwyMDQuMyAzMjIuMzcsMjA0LjI2IDMyMi4wNCwyMDQuNDEgMzIyLjEzLDIwNC4zNyAzMjEuODEsMjA0LjU0IDMyMS45LDIwNC40OSAzMjEuNTksMjA0LjY4IDMyMS42OCwyMDQuNjIgMzIxLjM4LDIwNC44MiAzMjEuNDcsMjA0Ljc2IDMyMS4xOCwyMDQuOTkgMzIxLjI2LDIwNC45MSAzMjAuOTgsMjA1LjE2IDMyMS4wNiwyMDUuMDggMzIwLjgsMjA1LjM1IDMyMC44OCwyMDUuMjYgMzIwLjYyLDIwNS41NSAzMjAuNywyMDUuNDYgMzIwLjQ1LDIwNS43NyAzMjAuNTIsMjA1LjY4IDMyMC4yOSwyMDYuMDEgMzIwLjM2LDIwNS45MiAzMjAuMTQsMjA2LjI3IDMyMC4yLDIwNi4xNyAzMjAsMjA2LjU1IDMyMC4wNSwyMDYuNDUgMzE5Ljg3LDIwNi44NiAzMTkuOTEsMjA2Ljc2IDMxOS43NCwyMDcuMTkgMzE5Ljc4LDIwNy4wOSAzMTkuNjMsMjA3LjU1IDMxOS42NSwyMDcuNDYgMzE5LjUzLDIwNy45NCAzMTkuNTUsMjA3Ljg0IDMxOS40NCwyMDguMzUgMzE5LjQ2LDIwOC4yNyAzMTkuMzcsMjA4LjggMzE5LjM4LDIwOC43MiAzMTkuMzEsMjA5LjI4IDMxOS4zMiwyMDkuMiAzMTkuMjcsMjA5LjggMzE5LjI4LDIwOS43MiAzMTkuMjUsMjEwLjM0IDMxOS4yNSwyMTAuMjcgMzE5LjI1LDIxMC45MiAzMTkuMjUsMjEwLjg2IDMxOS4yOCwyMTEuNTQgMzE5LjI3LDIxMS40OCAzMTkuMjgsMjExLjY0IDMxOS4yOCwyMTEuNTkgMzE5LjMsMjExLjc4IDMxOS4yOSwyMTEuNzUgMzE5LjMyLDIxMS45NiAzMTkuMzEsMjExLjkzIDMxOS4zNCwyMTIuMTYgMzE5LjM0LDIxMi4xNCAzMTkuMzcsMjEyLjQgMzE5LjM3LDIxMi4zNyAzMTkuNDEsMjEyLjY0IDMxOS40MSwyMTIuNjMgMzE5LjQ1LDIxMi45MyAzMTkuNDUsMjEyLjkxIDMxOS41LDIxMy4yMyAzMTkuNSwyMTMuMjEgMzE5LjU2LDIxMy41NCAzMTkuNTYsMjEzLjUzIDMxOS42MiwyMTMuODggMzE5LjYxLDIxMy44NiAzMTkuNjgsMjE0LjIyIDMxOS42OCwyMTQuMjEgMzE5Ljc1LDIxNC41OSAzMTkuNzUsMjE0LjU4IDMxOS44MywyMTQuOTcgMzE5LjgzLDIxNC45NiAzMTkuOTEsMjE1LjM2IDMxOS45MSwyMTUuMzQgMzIwLjA5LDIxNi4xOCAzMjAuMDksMjE2LjE2IDMyMC4yOSwyMTcuMDQgMzIwLjI4LDIxNy4wMSAzMjAuNTEsMjE3LjkyIDMyMC41LDIxNy45IDMyMC43NCwyMTguODMgMzIwLjczLDIxOC44IDMyMC45OSwyMTkuNzQgMzIwLjk4LDIxOS43MiAzMjEuMjYsMjIwLjY2IDMyMS4yNSwyMjAuNjMgMzIxLjU0LDIyMS41NyAzMjEuNTMsMjIxLjU0IDMyMS44NCwyMjIuNDggMzIxLjgzLDIyMi40NCAzMjIuMTUsMjIzLjM1IDMyMi4xMywyMjMuMzEgMzIyLjQ3LDIyNC4xOSAzMjIuNDUsMjI0LjE1IDMyMi44MSwyMjUgMzIyLjc5LDIyNC45NSAzMjIuOTcsMjI1LjM2IDMyMi45NSwyMjUuMzMgMzIzLjE0LDIyNS43MyAzMjMuMTIsMjI1LjcgMzIzLjMxLDIyNi4wOCAzMjMuMjksMjI2LjA0IDMyMy40OCwyMjYuNDEgMzIzLjQ2LDIyNi4zNyAzMjMuNjYsMjI2LjczIDMyMy42NCwyMjYuNjkgMzIzLjgzLDIyNy4wMyAzMjMuOCwyMjYuOTggMzI0LDIyNy4zIDMyMy45NywyMjcuMjUgMzI0LjE3LDIyNy41NSAzMjQuMTMsMjI3LjQ5IDMyNC4zNCwyMjcuNzggMzI0LjI5LDIyNy43MiAzMjQuNSwyMjcuOTggMzI0LjQ1LDIyNy45MSAzMjQuNjYsMjI4LjE2IDMyNC41OSwyMjguMDggMzI0LjgsMjI4LjMgMzI0LjcyLDIyOC4yMyAzMjQuOTQsMjI4LjQyIDMyNC44NCwyMjguMzQgMzI1LjA2LDIyOC41MSAzMjQuOTQsMjI4LjQyIDMyNS4xNiwyMjguNTcgMzI1LjAyLDIyOC40OCAzMjUuMjQsMjI4LjYxIDMyNS4wNiwyMjguNTIgMzI1LjI5LDIyOC42MiAzMjUuMSwyMjguNTUgMzI1LjMyLDIyOC42MSAzMjUuMDksMjI4LjU2IDMyNS4zMiwyMjguNiAzMjUuMDgsMjI4LjU4IDMyNS4zMSwyMjguNTggMzI1LjA3LDIyOC41OSAzMjUuMywyMjguNTcgMzI1LjA2LDIyOC42MSAzMjUuMjksMjI4LjU1IDMyNS4wNiwyMjguNjMgMzI1LjMsMjI4LjUzIDMyNS4xMSwyMjguNjIgMzI1LjM0LDIyOC41IDMyNS4xNywyMjguNiAzMjUuNDEsMjI4LjQ0IDMyNS4yNywyMjguNTQgMzI1LjUxLDIyOC4zNCAzMjUuNCwyMjguNDQgMzI1LjY0LDIyOC4yMSAzMjUuNTUsMjI4LjMxIDMyNS43OSwyMjguMDMgMzI1Ljc2LDIyOC4wNyAzMjYuMTEsMjI3LjY1IDMyNi4xMiwyMjcuNjQgMzI2LjQ4LDIyNy4yMiAzMjYuNDgsMjI3LjIxIDMyNi44MywyMjYuODEgMzI2LjgzLDIyNi44MSAzMjcuMTcsMjI2LjQyIDMyNy4xOCwyMjYuNDEgMzI3LjM0LDIyNi4yMyAzMjcuMzUsMjI2LjIyIDMyNy41MSwyMjYuMDQgMzI3LjY2LDIyNS44NiAzMjcuODIsMjI1LjY4IDMyNy44MywyMjUuNjggMzI3Ljk3LDIyNS41MSAzMjguMTIsMjI1LjM1IDMyOC4yNiwyMjUuMiAzMjguMjcsMjI1LjE5IDMyOC40LDIyNS4wNCAzMjguNTMsMjI0LjkgMzI4LjY1LDIyNC43NiAzMjguNzcsMjI0LjYzIDMyOC43NywyMjQuNjMgMzI4Ljg4LDIyNC41MSAzMjguOTksMjI0LjQgMzI4Ljk5LDIyNC4zOSAzMjkuMDksMjI0LjI5IDMyOS4wOCwyMjQuMjkgMzI5LjE3LDIyNC4yIDMyOS4xOCwyMjQuMTkgMzI5LjI2LDIyNC4xIDMyOS4zMywyMjQuMDMgMzI5LjQsMjIzLjk2IDMyOS40NSwyMjMuOSAzMjkuNSwyMjMuODUgMzI5LjU0LDIyMy44MSAzMjkuNTcsMjIzLjc4IDMyOS42LDIyMy43NCAzMjkuNjIsMjIzLjcyIDMyOS41MywyMjMuODEgMzI5LjU0LDIyMy44MSAzMzEuOTMsMjIzLjQ3IDMzMi4xLDIyMy41OCAzMzIuMDQsMjIzLjU0IDMzMi4yMiwyMjMuNjQgMzMyLjE1LDIyMy42IDMzMi4zMywyMjMuNyAzMzIuMjcsMjIzLjY3IDMzMi40NSwyMjMuNzYgMzMyLjM4LDIyMy43MiAzMzIuNTcsMjIzLjgxIDMzMi41LDIyMy43OCAzMzIuNjksMjIzLjg1IDMzMi42MiwyMjMuODIgMzMyLjgxLDIyMy44OSAzMzIuNzMsMjIzLjg3IDMzMi45MywyMjMuOTIgMzMyLjg2LDIyMy45IDMzMy4wNiwyMjMuOTUgMzMyLjk4LDIyMy45MyAzMzMuMTgsMjIzLjk3IDMzMy4xLDIyMy45NiAzMzMuMywyMjMuOTkgMzMzLjIyLDIyMy45OCAzMzMuNDMsMjI0IDMzMy4zNSwyMjMuOTkgMzMzLjU2LDIyNC4wMSAzMzMuNDcsMjI0IDMzMy42OSwyMjQuMDEgMzMzLjYsMjI0LjAxIDMzMy44MSwyMjQgMzMzLjczLDIyNCAzMzMuOTUsMjIzLjk5IDMzMi44OCwyMjQuNDMgMzMyLjk2LDIyNC4zNiAzMzYuMDIsMjI1Ljg1IDMzNi4wMSwyMjYuMDcgMzM2LjAyLDIyNS45NSAzMzYuMDIsMjI2LjE3IDMzNi4wMSwyMjYuMDYgMzM2LjAzLDIyNi4yOSAzMzYuMDIsMjI2LjIyIDMzNi4wNCwyMjYuMzMgMzM2LjAzLDIyNi4yOSAzMzYuMDUsMjI2LjQxIDMzNS42LDIyNy44OCAzMzUuNDgsMjI4LjAyIDMzNS41LDIyOCAzMzUuMzgsMjI4LjEyIDMzNS40LDIyOC4xMSAzMzUuMywyMjguMjMgMzM1LjMxLDIyOC4yMiAzMzUuMjEsMjI4LjM0IDMzNS4yMiwyMjguMzIgMzM1LjEzLDIyOC40MyAzMzUuMTUsMjI4LjQyIDMzNS4wNiwyMjguNTIgMzM1LjA2LDIyOC41MiAzMzQuOTksMjI4LjYyIDMzNC45OCwyMjguNjMgMzM0LjkxLDIyOC43MiAzMzQuOSwyMjguNzMgMzM0LjgzLDIyOC44MiAzMzQuODIsMjI4LjgzIDMzNC43NSwyMjguOTEgMzM0LjcyLDIyOC45NSAzMzQuNTgsMjI5LjExIDMzNC41MSwyMjkuMTkgMzM0LjM3LDIyOS4zMyAzMzQuMjYsMjI5LjQzIDMzNC4xMiwyMjkuNTYgMzM0LjAyLDIyOS42NCAzMzMuOTQsMjI5LjcgMzMzLjg2LDIyOS43NiAzMzMuNzgsMjI5LjgxIDMzMy43MiwyMjkuODYgMzMzLjYzLDIyOS45MSAzMzMuNTQsMjI5Ljk2IDMzMy40NCwyMzAuMDEgMzMzLjM4LDIzMC4wNSAzMzMuMjgsMjMwLjEgMzMzLjIxLDIzMC4xMyAzMzMuMSwyMzAuMTggMzMzLjAzLDIzMC4yMSAzMzIuOTEsMjMwLjI2IDMzMi44NiwyMzAuMjggMzMyLjczLDIzMC4zMyAzMzIuNjgsMjMwLjM0IDMzMi41NCwyMzAuMzkgMzMyLjQ5LDIzMC40IDMzMi4zNCwyMzAuNDUgMzMyLjMsMjMwLjQ2IDMzMi4xMywyMzAuNTEgMzMyLjEsMjMwLjUyIDMzMS45MiwyMzAuNTcgMzMxLjg5LDIzMC41NyAzMzEuNjksMjMwLjYyIDMzMS42OCwyMzAuNjIgMzMxLjQ2LDIzMC42NyAzMzEuNDQsMjMwLjY4IDMzMS4yMSwyMzAuNzMgMzMxLjIsMjMwLjczIDMzMS4wOCwyMzAuNzYgMzMwLjk1LDIzMC43OCAzMzAuOTcsMjMwLjc4IDMzMC44NCwyMzAuODEgMzMwLjg2LDIzMC44IDMzMC43NCwyMzAuODMgMzMwLjc3LDIzMC44MiAzMzAuNjYsMjMwLjg1IDMzMC43MSwyMzAuODQgMzMwLjYxLDIzMC44NyAzMzAuNjIsMjMwLjg2IDMzMC41MiwyMzAuODkgMzMwLjU3LDIzMC44OCAzMzAuNDgsMjMwLjkgMzMwLjUxLDIzMC44OSAzMzAuNDIsMjMwLjkyIDMzMC40NywyMzAuOTEgMzMwLjM5LDIzMC45NCAzMzAuNDMsMjMwLjkyIDMzMC4zNSwyMzAuOTUgMzMwLjQxLDIzMC45MyAzMzAuMzQsMjMwLjk2IDMzMC4zOCwyMzAuOTQgMzMwLjMxLDIzMC45NyAzMzAuMzgsMjMwLjk0IDMzMC4zMiwyMzAuOTcgMzMwLjM3LDIzMC45NCAzMzAuMzIsMjMwLjk3IDMzMC40LDIzMC45MiAzMzAuMzUsMjMwLjk2IDMzMC40MSwyMzAuOTEgMzMwLjM2LDIzMC45NSAzMzAuNDMsMjMwLjkgMzMwLjM5LDIzMC45MyAzMzAuNSwyMzAuODQgMzMwLjQ2LDIzMC44OCAzMzAuNTQsMjMwLjggMzMwLjUxLDIzMC44MyAzMzAuNjMsMjMwLjcgMzMwLjU3LDIzMC43NiAzMzAuNzUsMjMwLjUxIDMzMC43MSwyMzAuNTcgMzMwLjg2LDIzMC4yNSAzMzAuODMsMjMwLjMyIDMzMC45MiwyMjkuOTUgMzMwLjkxLDIzMC4wMSAzMzAuOTIsMjI5LjY1IDMzMC45MywyMjkuNzIgMzMwLjg2LDIyOS4zNyAzMzAuODgsMjI5LjQ0IDMzMC43OSwyMjkuMTcgMzMwLjgyLDIyOS4yMyAzMzAuNywyMjkuMDEgMzMwLjc0LDIyOS4wOCAzMzAuNjIsMjI4LjkxIDMzMC42NywyMjguOTcgMzMwLjU2LDIyOC44NCAzMzAuNjIsMjI4LjkxIDMzMC41MSwyMjguOCAzMzAuNTgsMjI4Ljg3IDMzMC41LDIyOC44IDMzMC41OCwyMjguODYgMzMwLjQ5LDIyOC43OSAzMzAuNTcsMjI4Ljg1IDMzMC41LDIyOC44IDMzMC41OCwyMjguODUgMzMwLjUyLDIyOC44MiAzMzAuNjEsMjI4Ljg3IDMzMC41MiwyMjguODIgMzMwLjcyLDIyOC45MiAzMzAuNjEsMjI4Ljg3IDMzMC44MSwyMjguOTUgMzMwLjcxLDIyOC45MiAzMzAuOTIsMjI4Ljk5IDMzMC44MSwyMjguOTUgMzMxLjAxLDIyOS4wMSAzMzAuOTMsMjI4Ljk5IDMzMS4wNSwyMjkuMDIgMzMxLjAzLDIyOS4wMiAzMzEuMTcsMjI5LjA1IDMzMS4xMywyMjkuMDQgMzMxLjI3LDIyOS4wNyAzMzEuMjUsMjI5LjA2IDMzMS40LDIyOS4wOSAzMzEuMzYsMjI5LjA4IDMzMS41MSwyMjkuMTEgMzMxLjQ4LDIyOS4xIDMzMS42NCwyMjkuMTMgMzMxLjYsMjI5LjEyIDMzMS43NywyMjkuMTQgMzMxLjczLDIyOS4xNCAzMzEuOTEsMjI5LjE2IDMzMS44NiwyMjkuMTUgMzMyLjA0LDIyOS4xNyAzMzEuOTksMjI5LjE2IDMzMi4xOCwyMjkuMTcgMzMyLjEzLDIyOS4xNyAzMzIuMzMsMjI5LjE4IDMzMi4yNywyMjkuMTggMzMyLjQ2LDIyOS4xNyAzMzIuNDEsMjI5LjE3IDMzMi42MSwyMjkuMTcgMzMyLjU1LDIyOS4xNyAzMzIuNzUsMjI5LjE1IDMzMi42OCwyMjkuMTYgMzMyLjg5LDIyOS4xNCAzMzIuODMsMjI5LjE1IDMzMy4wNCwyMjkuMTEgMzMyLjk3LDIyOS4xMyAzMzMuMTgsMjI5LjA5IDMzMy4xMSwyMjkuMSAzMzMuMzIsMjI5LjA1IDMzMy4yNCwyMjkuMDcgMzMzLjQ2LDIyOS4wMSAzMzMuMzgsMjI5LjAzIDMzMy42LDIyOC45NiAzMzMuNTIsMjI4Ljk5IDMzMy43NCwyMjguOTEgMzMzLjY2LDIyOC45NCAzMzMuODcsMjI4Ljg1IDMzMy43OCwyMjguODkgMzM0LDIyOC43OCAzMzMuOTIsMjI4LjgyIDMzNC4xNCwyMjguNyAzMzQuMDUsMjI4Ljc1IDMzNC4yNywyMjguNjIgMzM0LjE5LDIyOC42NyAzMzQuNCwyMjguNTIgMzM0LjMyLDIyOC41NyAzMzQuNTMsMjI4LjQxIDMzNC40NiwyMjguNDcgMzM0LjY2LDIyOC4yOSAzMzQuNTksMjI4LjM2IDMzNC43OSwyMjguMTYgMzM0LjczLDIyOC4yMyAzMzQuOTIsMjI4LjAyIDMzNC44OCwyMjguMDcgMzM0Ljk4LDIyNy45NSAzMzQuOTUsMjI3Ljk4IDMzNS4wNSwyMjcuODcgMzM1LjAxLDIyNy45MSAzMzUuMTEsMjI3Ljc5IDMzNS4wOCwyMjcuODIgMzM1LjE3LDIyNy42OSAzMzguNDYsMjI5LjIzIDMzOC4zOSwyMjkuNTQgMzM3Ljg4LDIyNy43NyAzMzcuOTIsMjI3LjgyIDMzOC4xMSwyMjguMDMgMzM4LjE2LDIyOC4wOSAzMzguMjcsMjI4LjI2IDMzOC4zMSwyMjguMzMgMzM4LjM5LDIyOC40OCAzMzguNDMsMjI4LjU2IDMzOC40OSwyMjguNyAzMzguNTMsMjI4Ljc5IDMzOC41NSwyMjguODcgMzM4LjU5LDIyOC45NyAzMzguNjEsMjI5LjA2IDMzOC42NSwyMjkuMTcgMzM4LjY2LDIyOS4yNSAzMzguNjksMjI5LjM3IDMzOC43LDIyOS40MiAzMzguNzMsMjI5LjU1IDMzOC43NCwyMjkuNjEgMzM4Ljc2LDIyOS43NCAzMzguNzcsMjI5Ljc4IDMzOC43OSwyMjkuOTIgMzM4Ljc5LDIyOS45NiAzMzguODEsMjMwLjExIDMzOC44MiwyMzAuMTQgMzM4LjgzLDIzMC4yOSAzMzguODQsMjMwLjMyIDMzOC44NSwyMzAuNDggMzM4Ljg1LDIzMC41MSAzMzguODcsMjMwLjY4IDMzOC44NywyMzAuNjkgMzM4Ljg4LDIzMC44NyAzMzguODksMjMwLjg5IDMzOC45MSwyMzEuMjUgMzM4LjkxLDIzMS4yOCAzMzguOTMsMjMxLjY1IDMzOC45MywyMzEuNjcgMzM4Ljk0LDIzMi4wNSAzMzguOTQsMjMyLjA2IDMzOC45NiwyMzIuNDQgMzM4Ljk3LDIzMi44MyAzMzguOTcsMjMyLjg0IDMzOC45OCwyMzMuMjIgMzM4Ljk4LDIzMy4yMSAzMzguOTksMjMzLjU4IDMzOC45OSwyMzMuNTcgMzM5LDIzMy45MyAzMzksMjMzLjkyIDMzOS4wMiwyMzQuMjcgMzM5LjAyLDIzNC4yNiAzMzkuMDMsMjM0LjYgMzM5LjA1LDIzNC45MyAzMzkuMDUsMjM0LjkyIDMzOS4wNywyMzUuMjUgMzM5LjA3LDIzNS4yNCAzMzkuMDksMjM1LjU2IDMzOS4wOSwyMzUuNTUgMzM5LjEyLDIzNS44NyAzMzkuMTIsMjM1Ljg1IDMzOS4xNCwyMzYuMTYgMzM5LjE0LDIzNi4xNCAzMzkuMTcsMjM2LjQ0IDMzOS4xNywyMzYuNDEgMzM5LjIsMjM2LjcxIDMzOS4yLDIzNi42NyAzMzkuMjQsMjM2Ljk2IDMzOS4yMywyMzYuOTIgMzM5LjI4LDIzNy4xOSAzMzkuMjcsMjM3LjE0IDMzOS4zMiwyMzcuNCAzMzkuMzEsMjM3LjM1IDMzOS4zNiwyMzcuNiAzMzkuMzQsMjM3LjU0IDMzOS40LDIzNy43NyAzMzkuMzgsMjM3LjcgMzM5LjQ1LDIzNy45MiAzMzkuNDIsMjM3Ljg0IDMzOS40OSwyMzguMDQgMzM5LjQ4LDIzOC4wMSAzMzkuNTIsMjM4LjExIDMzOS41MiwyMzguMTQgMzM5LjU2LDIzOC4yNSAzMzkuNTcsMjM4LjI2IDMzOS42LDIzOC4zOCAzMzkuNjEsMjM4LjM5IDMzOS42NSwyMzguNTEgMzM5LjY0LDIzOC41IDMzOS42OSwyMzguNjMgMzM5LjY4LDIzOC42MSAzMzkuNzMsMjM4Ljc1IDMzOS43MiwyMzguNzIgMzM5Ljc3LDIzOC44NiAzMzkuNzUsMjM4LjgyIDMzOS44MSwyMzguOTYgMzM5Ljc5LDIzOC45MiAzMzkuODUsMjM5LjA3IDMzOS44MywyMzkuMDIgMzM5Ljg5LDIzOS4xNiAzMzkuODcsMjM5LjExIDMzOS45NCwyMzkuMjYgMzM5LjkxLDIzOS4xOSAzMzkuOTgsMjM5LjM0IDMzOS45NSwyMzkuMjYgMzQwLjAzLDIzOS40MSAzMzkuOTgsMjM5LjM0IDM0MC4wOCwyMzkuNDggMzQwLjAyLDIzOS40IDM0MC4xMiwyMzkuNTMgMzQwLjA2LDIzOS40NiAzNDAuMTcsMjM5LjU5IDM0MC4xLDIzOS41IDM0MC4yMSwyMzkuNjMgMzQwLjEzLDIzOS41NCAzNDAuMjUsMjM5LjY2IDM0MC4xNiwyMzkuNTggMzQwLjMsMjM5LjcgMzQwLjE5LDIzOS42MiAzNDAuMzQsMjM5LjcyIDM0MC4yMywyMzkuNjQgMzQwLjM5LDIzOS43NCAzNDAuMjYsMjM5LjY3IDM0MC40NCwyMzkuNzYgMzQwLjMxLDIzOS43IDM0MC40OSwyMzkuNzggMzQwLjM2LDIzOS43MyAzNDAuNTYsMjM5LjggMzQwLjQyLDIzOS43NiAzNDAuNjQsMjM5LjgxIDM0MC41LDIzOS43OCAzNDAuNzIsMjM5LjgyIDM0MC42LDIzOS44IDM0MC44NCwyMzkuODMgMzQwLjcyLDIzOS44MiAzNDAuOTgsMjM5LjgzIDM0MC44NiwyMzkuODMgMzQxLjEzLDIzOS44MiAzNDEuMDUsMjM5LjgzIDM0MS4xOSwyMzkuODIgMzQxLjE0LDIzOS44MiAzNDEuMjksMjM5LjgxIDM0MS4yMywyMzkuODEgMzQxLjM4LDIzOS43OSAzNDEuMzQsMjM5LjggMzQxLjUsMjM5Ljc4IDM0MS40NCwyMzkuNzggMzQxLjYsMjM5Ljc2IDM0MS41NiwyMzkuNzYgMzQxLjczLDIzOS43MyAzNDEuNjksMjM5Ljc0IDM0MS45NywyMzkuNjggMzQxLjk0LDIzOS42OCAzNDIuMjIsMjM5LjYyIDM0Mi4xOCwyMzkuNjMgMzQyLjQ0LDIzOS41NiAzNDIuNDEsMjM5LjU3IDM0Mi42NywyMzkuNSAzNDIuNiwyMzkuNTIgMzQyLjg2LDIzOS40MyAzNDIuOCwyMzkuNDUgMzQzLjA2LDIzOS4zNiAzNDIuOTgsMjM5LjM5IDM0My4yMywyMzkuMjkgMzQzLjE1LDIzOS4zMyAzNDMuMzksMjM5LjIyIDM0My4zLDIzOS4yNiAzNDMuNTMsMjM5LjE0IDM0My40NCwyMzkuMTkgMzQzLjY3LDIzOS4wNiAzNDMuNTcsMjM5LjEyIDM0My43OSwyMzguOTcgMzQzLjcsMjM5LjAzIDM0My45MiwyMzguODcgMzQzLjg0LDIzOC45MyAzNDMuOTQsMjM4Ljg0IDM0My45LDIzOC44OCAzNDQsMjM4Ljc4IDM0My45NiwyMzguODMgMzQ0LjA2LDIzOC43MyAzNDQuMDEsMjM4Ljc3IDM0NC4xMSwyMzguNjcgMzQ0LjA3LDIzOC43MSAzNDQuMTcsMjM4LjYgMzQ0LjEyLDIzOC42NiAzNDQuMjIsMjM4LjU0IDM0NC4xOSwyMzguNTggMzQ0LjI4LDIzOC40NiAzNDQuMjQsMjM4LjUxIDM0NC4zMywyMzguMzkgMzQ0LjMsMjM4LjQzIDM0NC4zOSwyMzguMyAzNDQuMzYsMjM4LjM1IDM0NC40NCwyMzguMjIgMzQ0LjQxLDIzOC4yNyAzNDQuNSwyMzguMTIgMzQ0LjQ3LDIzOC4xNyAzNDQuNTYsMjM4LjAyIDM0NC41MywyMzguMDYgMzQ0LjYxLDIzNy45MSAzNDQuNTksMjM3Ljk1IDM0NC42NywyMzcuNzkgMzQ0LjY0LDIzNy44NCAzNDQuNzIsMjM3LjY3IDM0NC43LDIzNy43MSAzNDQuNzgsMjM3LjUzIDM0NC43NiwyMzcuNTggMzQ0LjgzLDIzNy40IDM0NC44MiwyMzcuNDMgMzQ0Ljg5LDIzNy4yNCAzNDQuODcsMjM3LjI5IDM0NC45NCwyMzcuMDkgMzQ0LjkzLDIzNy4xMiAzNDQuOTksMjM2LjkyIDM0NC45OCwyMzYuOTYgMzQ1LjA0LDIzNi43NSAzNDUuMDMsMjM2Ljc4IDM0NS4wOSwyMzYuNTYgMzQ1LjA4LDIzNi41OSAzNDUuMTQsMjM2LjM2IDM0NS4xMywyMzYuNCAzNDUuMTksMjM2LjE2IDM0NS4xOCwyMzYuMTkgMzQ1LjIzLDIzNS45NSAzNDUuMjMsMjM1Ljk4IDM0NS4yOCwyMzUuNzIgMzQ1LjI3LDIzNS43NSAzNDUuMzIsMjM1LjQ5IDM0NS4zMiwyMzUuNTIgMzQ1LjM2LDIzNS4yNSAzNDUuMzYsMjM1LjI3IDM0NS40LDIzNC45OSAzNDUuNCwyMzUuMDEgMzQ1LjQzLDIzNC43MiAzNDUuNDMsMjM0Ljc1IDM0NS40NywyMzQuNDUgMzQ1LjQ3LDIzNC40NyAzNDUuNSwyMzQuMTYgMzQ1LjUsMjM0LjE5IDM0NS41MywyMzMuODcgMzQ1LjUzLDIzMy44OSAzNDUuNTYsMjMzLjU2IDM0NS41NSwyMzMuNTggMzQ1LjU4LDIzMy4yNCAzNDUuNTgsMjMzLjI2IDM0NS42LDIzMi45MSAzNDUuNiwyMzIuOTMgMzQ1LjYyLDIzMi41NyAzNDUuNjIsMjMyLjU5IDM0NS42NCwyMzIuMjIgMzQ1LjY0LDIzMi4yNCAzNDUuNjUsMjMxLjg2IDM0NS42NSwyMzEuODcgMzQ1LjY2LDIzMS40OCAzNDkuMzYsMjMxLjU5IDM0OS4zNSwyMzEuOTggMzQ5LjM1LDIzMS45OSAzNDkuMzQsMjMyLjM3IDM0OS4zNCwyMzIuMzkgMzQ5LjMyLDIzMi43NiAzNDkuMzIsMjMyLjc4IDM0OS4zLDIzMy4xNCAzNDkuMywyMzMuMTYgMzQ5LjI3LDIzMy41IDM0OS4yNywyMzMuNTIgMzQ5LjI0LDIzMy44NiAzNDkuMjQsMjMzLjg4IDM0OS4yMSwyMzQuMjEgMzQ5LjIxLDIzNC4yMyAzNDkuMTgsMjM0LjU1IDM0OS4xOCwyMzQuNTcgMzQ5LjE0LDIzNC44OCAzNDkuMTQsMjM0LjkgMzQ5LjExLDIzNS4yIDM0OS4xLDIzNS4yMyAzNDkuMDYsMjM1LjUyIDM0OS4wNiwyMzUuNTQgMzQ5LjAyLDIzNS44MiAzNDkuMDEsMjM1Ljg1IDM0OC45NywyMzYuMTIgMzQ4Ljk2LDIzNi4xNSAzNDguOTIsMjM2LjQxIDM0OC45MSwyMzYuNDQgMzQ4Ljg2LDIzNi42OSAzNDguODUsMjM2LjcyIDM0OC44LDIzNi45NyAzNDguNzksMjM3IDM0OC43NCwyMzcuMjQgMzQ4LjczLDIzNy4yNyAzNDguNjcsMjM3LjUgMzQ4LjY3LDIzNy41MyAzNDguNjEsMjM3Ljc1IDM0OC42LDIzNy43OSAzNDguNTMsMjM4IDM0OC41MiwyMzguMDQgMzQ4LjQ1LDIzOC4yNSAzNDguNDQsMjM4LjI4IDM0OC4zOCwyMzguNDggMzQ4LjM2LDIzOC41MiAzNDguMjksMjM4LjcxIDM0OC4yOCwyMzguNzQgMzQ4LjIxLDIzOC45MyAzNDguMTksMjM4Ljk3IDM0OC4xMSwyMzkuMTUgMzQ4LjEsMjM5LjE5IDM0OC4wMiwyMzkuMzYgMzQ4LDIzOS40MSAzNDcuOTIsMjM5LjU3IDM0Ny45LDIzOS42MSAzNDcuODIsMjM5Ljc3IDM0Ny43OSwyMzkuODIgMzQ3LjcxLDIzOS45NiAzNDcuNjksMjQwLjAxIDM0Ny42LDI0MC4xNSAzNDcuNTcsMjQwLjIgMzQ3LjQ4LDI0MC4zNCAzNDcuNDUsMjQwLjM5IDM0Ny4zNiwyNDAuNTIgMzQ3LjMzLDI0MC41NiAzNDcuMjQsMjQwLjY5IDM0Ny4yLDI0MC43NCAzNDcuMSwyNDAuODYgMzQ3LjA3LDI0MC45IDM0Ni45OCwyNDEuMDEgMzQ2LjkzLDI0MS4wNyAzNDYuODQsMjQxLjE4IDM0Ni44LDI0MS4yMiAzNDYuNywyNDEuMzIgMzQ2LjY2LDI0MS4zNyAzNDYuNTYsMjQxLjQ3IDM0Ni41MSwyNDEuNTEgMzQ2LjQxLDI0MS42IDM0Ni4zNiwyNDEuNjQgMzQ2LjI2LDI0MS43MyAzNDYuMTgsMjQxLjc5IDM0NS45NywyNDEuOTYgMzQ1Ljg4LDI0Mi4wMyAzNDUuNjYsMjQyLjE4IDM0NS41NiwyNDIuMjQgMzQ1LjMzLDI0Mi4zNyAzNDUuMjQsMjQyLjQyIDM0NS4wMSwyNDIuNTQgMzQ0LjkyLDI0Mi41OSAzNDQuNjgsMjQyLjcgMzQ0LjYsMjQyLjczIDM0NC4zNiwyNDIuODMgMzQ0LjI5LDI0Mi44NiAzNDQuMDMsMjQyLjk1IDM0My45OCwyNDIuOTYgMzQzLjcyLDI0My4wNCAzNDMuNjYsMjQzLjA2IDM0My40LDI0My4xNCAzNDMuMzYsMjQzLjE1IDM0My4xLDI0My4yMSAzNDMuMDYsMjQzLjIyIDM0Mi43OSwyNDMuMjkgMzQyLjc3LDI0My4yOSAzNDIuNDksMjQzLjM1IDM0Mi40NSwyNDMuMzYgMzQyLjI5LDI0My4zOSAzNDIuMjUsMjQzLjQgMzQyLjA5LDI0My40MyAzNDIuMDQsMjQzLjQ0IDM0MS44OSwyNDMuNDYgMzQxLjg1LDI0My40NyAzNDEuNywyNDMuNDggMzQxLjY0LDI0My40OSAzNDEuNSwyNDMuNTEgMzQxLjQ1LDI0My41MSAzNDEuMywyNDMuNTIgMzQxLjIyLDI0My41MiAzNDAuOTUsMjQzLjUzIDM0MC44NCwyNDMuNTMgMzQwLjU4LDI0My41MiAzNDAuNDYsMjQzLjUxIDM0MC4yMiwyNDMuNDkgMzQwLjEsMjQzLjQ3IDMzOS44NywyNDMuNDMgMzM5Ljc0LDI0My40IDMzOS41MywyNDMuMzUgMzM5LjM5LDI0My4zMSAzMzkuMiwyNDMuMjQgMzM5LjA2LDI0My4xOSAzMzguODgsMjQzLjEyIDMzOC43NSwyNDMuMDYgMzM4LjU4LDI0Mi45NyAzMzguNDYsMjQyLjkgMzM4LjMsMjQyLjgxIDMzOC4xOCwyNDIuNzMgMzM4LjAzLDI0Mi42MiAzMzcuOTMsMjQyLjU0IDMzNy43OSwyNDIuNDMgMzM3LjcsMjQyLjM0IDMzNy41NywyNDIuMjIgMzM3LjQ5LDI0Mi4xNCAzMzcuMzcsMjQyLjAxIDMzNy4yOSwyNDEuOTIgMzM3LjE5LDI0MS43OSAzMzcuMTMsMjQxLjcxIDMzNy4wMywyNDEuNTggMzM2Ljk3LDI0MS41IDMzNi44OCwyNDEuMzYgMzM2Ljg0LDI0MS4yOCAzMzYuNzYsMjQxLjE0IDMzNi43MSwyNDEuMDcgMzM2LjY0LDI0MC45MyAzMzYuNjEsMjQwLjg2IDMzNi41NCwyNDAuNzIgMzM2LjUxLDI0MC42NyAzMzYuNDUsMjQwLjUyIDMzNi40MywyNDAuNDcgMzM2LjM3LDI0MC4zMyAzMzYuMzUsMjQwLjI5IDMzNi4zLDI0MC4xNSAzMzYuMjgsMjQwLjExIDMzNi4yNCwyMzkuOTcgMzM2LjIzLDIzOS45NSAzMzYuMTgsMjM5LjgxIDMzNi4xNywyMzkuOCAzMzYuMTMsMjM5LjY3IDMzNi4xMywyMzkuNjYgMzM2LjA5LDIzOS41MyAzMzYuMDksMjM5LjU0IDMzNi4wNSwyMzkuNDMgMzM2LjA2LDIzOS40NCAzMzYuMDIsMjM5LjMzIDMzNi4wMywyMzkuMzUgMzM1Ljk5LDIzOS4yNSAzMzUuOTgsMjM5LjIzIDMzNS45MSwyMzkuMDMgMzM1Ljg5LDIzOC45NSAzMzUuODMsMjM4LjczIDMzNS44MSwyMzguNjYgMzM1Ljc1LDIzOC40MyAzMzUuNzQsMjM4LjM3IDMzNS42OCwyMzguMTIgMzM1LjY3LDIzOC4wNyAzMzUuNjMsMjM3LjgxIDMzNS42MiwyMzcuNzcgMzM1LjU4LDIzNy41IDMzNS41NywyMzcuNDYgMzM1LjUzLDIzNy4xNyAzMzUuNTMsMjM3LjE0IDMzNS40OSwyMzYuODUgMzM1LjQ5LDIzNi44MiAzMzUuNDYsMjM2LjUyIDMzNS40NiwyMzYuNDkgMzM1LjQzLDIzNi4xOCAzMzUuNDMsMjM2LjE2IDMzNS40LDIzNS44NCAzMzUuNCwyMzUuODIgMzM1LjM4LDIzNS40OSAzMzUuMzgsMjM1LjQ4IDMzNS4zNiwyMzUuMTQgMzM1LjM1LDIzNS4xMyAzMzUuMzQsMjM0Ljc4IDMzNS4zMiwyMzQuNDQgMzM1LjMyLDIzNC40MyAzMzUuMywyMzQuMDggMzM1LjMsMjM0LjA3IDMzNS4yOSwyMzMuNzEgMzM1LjI5LDIzMy43IDMzNS4yOCwyMzMuMzMgMzM1LjI4LDIzMy4zMiAzMzUuMjcsMjMyLjk0IDMzNS4yNywyMzIuOTUgMzM1LjI2LDIzMi41NyAzMzUuMjQsMjMyLjE4IDMzNS4yNCwyMzIuMTkgMzM1LjIzLDIzMS44MSAzMzUuMjMsMjMxLjgzIDMzNS4yMSwyMzEuNDYgMzM1LjIxLDIzMS40OCAzMzUuMTksMjMxLjEyIDMzNS4xOSwyMzEuMTUgMzM1LjE4LDIzMC45OCAzMzUuMTgsMjMwLjk5IDMzNS4xNywyMzAuODIgMzM1LjE3LDIzMC44NSAzMzUuMTUsMjMwLjY5IDMzNS4xNSwyMzAuNzEgMzM1LjE0LDIzMC41NSAzMzUuMTQsMjMwLjU4IDMzNS4xMiwyMzAuNDMgMzM1LjEzLDIzMC40NyAzMzUuMTEsMjMwLjMyIDMzNS4xMSwyMzAuMzYgMzM1LjA5LDIzMC4yMiAzMzUuMSwyMzAuMjggMzM1LjA3LDIzMC4xNSAzMzUuMDgsMjMwLjE5IDMzNS4wNSwyMzAuMDcgMzM1LjA3LDIzMC4xNSAzMzUuMDQsMjMwLjA0IDMzNS4wNywyMzAuMTMgMzM1LjA0LDIzMC4wMyAzMzUuMDYsMjMwLjEgMzM1LjAzLDIzMC4wMSAzMzUuMDksMjMwLjE1IDMzNS4wNSwyMzAuMDcgMzM1LjEzLDIzMC4yMiAzMzUuMDksMjMwLjE1IDMzNS4yLDIzMC4zMiAzMzUuMTYsMjMwLjI3IDMzNS4zNSwyMzAuNDggMzM1LjMsMjMwLjQzIDMzNC43OSwyMjguNjYgMzM0Ljg3LDIyOC4zNSAzMzguMTYsMjI5Ljg4IDMzOC4wNywyMzAuMDEgMzM4LjA0LDIzMC4wNCAzMzcuOTQsMjMwLjE3IDMzNy45MSwyMzAuMjEgMzM3LjgyLDIzMC4zMyAzMzcuNzksMjMwLjM2IDMzNy42OSwyMzAuNDcgMzM3LjY1LDIzMC41MiAzMzcuNDUsMjMwLjc0IDMzNy4zOCwyMzAuODEgMzM3LjE4LDIzMSAzMzcuMTEsMjMxLjA3IDMzNi45LDIzMS4yNSAzMzYuODMsMjMxLjMxIDMzNi42MiwyMzEuNDggMzM2LjU0LDIzMS41NCAzMzYuMzMsMjMxLjY5IDMzNi4yNSwyMzEuNzQgMzM2LjA0LDIzMS44OCAzMzUuOTUsMjMxLjkzIDMzNS43NCwyMzIuMDUgMzM1LjY2LDIzMi4wOSAzMzUuNDQsMjMyLjIgMzM1LjM1LDIzMi4yNCAzMzUuMTQsMjMyLjMzIDMzNS4wNiwyMzIuMzcgMzM0Ljg0LDIzMi40NSAzMzQuNzYsMjMyLjQ4IDMzNC41NCwyMzIuNTUgMzM0LjQ2LDIzMi41NyAzMzQuMjUsMjMyLjY0IDMzNC4xNywyMzIuNjYgMzMzLjk1LDIzMi43MSAzMzMuODgsMjMyLjcyIDMzMy42NiwyMzIuNzYgMzMzLjU5LDIzMi43OCAzMzMuMzgsMjMyLjgxIDMzMy4zMSwyMzIuODIgMzMzLjEsMjMyLjg0IDMzMy4wMywyMzIuODUgMzMyLjgzLDIzMi44NiAzMzIuNzYsMjMyLjg3IDMzMi41NiwyMzIuODcgMzMyLjUsMjMyLjg4IDMzMi4zMSwyMzIuODggMzMyLjI0LDIzMi44OCAzMzIuMDUsMjMyLjg3IDMzMiwyMzIuODcgMzMxLjgxLDIzMi44NiAzMzEuNzYsMjMyLjg2IDMzMS41OCwyMzIuODUgMzMxLjUzLDIzMi44NCAzMzEuMzUsMjMyLjgyIDMzMS4zMSwyMzIuODIgMzMxLjE0LDIzMi44IDMzMS4xLDIzMi43OSAzMzAuOTMsMjMyLjc3IDMzMC44OSwyMzIuNzYgMzMwLjc0LDIzMi43MyAzMzAuNjksMjMyLjczIDMzMC41NCwyMzIuNyAzMzAuNTIsMjMyLjY5IDMzMC4zOCwyMzIuNjYgMzMwLjM0LDIzMi42NSAzMzAuMjEsMjMyLjYyIDMzMC4xOSwyMzIuNjIgMzMwLjA2LDIzMi41OSAzMjkuOTksMjMyLjU3IDMyOS43OSwyMzIuNTEgMzI5LjY4LDIzMi40OCAzMjkuNDcsMjMyLjQgMzI5LjM3LDIzMi4zNiAzMjkuMTcsMjMyLjI4IDMyOS4wNiwyMzIuMjMgMzI4Ljg2LDIzMi4xMyAzMjguNzcsMjMyLjA4IDMyOC42NywyMzIuMDMgMzI4LjYxLDIzMS45OSAzMjguNTIsMjMxLjkzIDMyOC40NCwyMzEuODggMzI4LjM2LDIzMS44MiAzMjguMjcsMjMxLjc2IDMyOC4yLDIzMS43IDMyOC4xMiwyMzEuNjMgMzI4LjA1LDIzMS41NyAzMjcuOTQsMjMxLjQ2IDMyNy44OCwyMzEuNCAzMjcuNzcsMjMxLjI3IDMyNy43MiwyMzEuMjEgMzI3LjYsMjMxLjA0IDMyNy41NiwyMzAuOTcgMzI3LjQ0LDIzMC43NSAzMjcuNDEsMjMwLjY4IDMyNy4zMSwyMzAuNDIgMzI3LjMsMjMwLjM1IDMyNy4yMywyMzAgMzI3LjIzLDIyOS45MyAzMjcuMjQsMjI5LjU3IDMyNy4yNSwyMjkuNSAzMjcuMzMsMjI5LjEzIDMyNy4zNSwyMjkuMDYgMzI3LjUsMjI4Ljc0IDMyNy41NCwyMjguNjcgMzI3LjcyLDIyOC40MSAzMjcuNzcsMjI4LjM1IDMyNy44OSwyMjguMjEgMzI3LjkyLDIyOC4xOCAzMjguMDEsMjI4LjEgMzI4LjA1LDIyOC4wNyAzMjguMTUsMjI3Ljk4IDMyOC4yLDIyNy45NSAzMjguMjcsMjI3LjkgMzI4LjMxLDIyNy44NiAzMjguMzgsMjI3LjgyIDMyOC40MywyMjcuNzkgMzI4LjUxLDIyNy43NCAzMjguNTcsMjI3LjcxIDMyOC42MiwyMjcuNjggMzI4LjY4LDIyNy42NSAzMjguNzYsMjI3LjYxIDMyOC44MiwyMjcuNTggMzI4Ljg3LDIyNy41NiAzMjguOTQsMjI3LjUzIDMyOC45OSwyMjcuNTEgMzI5LjA3LDIyNy40OCAzMjkuMTEsMjI3LjQ2IDMyOS4yLDIyNy40MyAzMjkuMjQsMjI3LjQxIDMyOS4zMywyMjcuMzkgMzI5LjM3LDIyNy4zNyAzMjkuNDYsMjI3LjM0IDMyOS41MSwyMjcuMzMgMzI5LjYxLDIyNy4zIDMyOS42MywyMjcuMyAzMjkuNzMsMjI3LjI3IDMyOS43OCwyMjcuMjUgMzI5Ljg5LDIyNy4yMyAzMjkuOTIsMjI3LjIyIDMzMC4wNCwyMjcuMTkgMzMwLjA2LDIyNy4xOSAzMzAuMTksMjI3LjE2IDMzMC4yLDIyNy4xNiAzMzAuMzIsMjI3LjEzIDMzMC40NCwyMjcuMTEgMzMwLjQzLDIyNy4xMSAzMzAuNjUsMjI3LjA2IDMzMC42MiwyMjcuMDcgMzMwLjgzLDIyNy4wMiAzMzAuODIsMjI3LjAyIDMzMS4wMSwyMjYuOTggMzMwLjk4LDIyNi45OCAzMzEuMTYsMjI2Ljk0IDMzMS4xMywyMjYuOTUgMzMxLjI5LDIyNi45IDMzMS4yNSwyMjYuOTEgMzMxLjQxLDIyNi44NiAzMzEuMzYsMjI2Ljg4IDMzMS41LDIyNi44MyAzMzEuNDUsMjI2Ljg1IDMzMS41OCwyMjYuOCAzMzEuNTMsMjI2LjgyIDMzMS42NSwyMjYuNzcgMzMxLjU5LDIyNi44IDMzMS43LDIyNi43NSAzMzEuNjIsMjI2Ljc5IDMzMS43MywyMjYuNzMgMzMxLjY3LDIyNi43NyAzMzEuNzYsMjI2LjcxIDMzMS42NywyMjYuNzcgMzMxLjc2LDIyNi43MSAzMzEuNywyMjYuNzUgMzMxLjc4LDIyNi42OSAzMzEuNywyMjYuNzUgMzMxLjc4LDIyNi42OSAzMzEuNjgsMjI2Ljc3IDMzMS44MiwyMjYuNjUgMzMxLjcyLDIyNi43NSAzMzEuODYsMjI2LjYxIDMzMS43OCwyMjYuNjkgMzMxLjkxLDIyNi41NCAzMzEuODgsMjI2LjU3IDMzMS45NSwyMjYuNDkgMzMxLjk0LDIyNi41IDMzMi4wMSwyMjYuNDEgMzMyLjAxLDIyNi40MiAzMzIuMDgsMjI2LjMzIDMzMi4wNywyMjYuMzMgMzMyLjE1LDIyNi4yNCAzMzIuMTYsMjI2LjIzIDMzMi4yNCwyMjYuMTMgMzMyLjI1LDIyNi4xMSAzMzIuMzQsMjI2IDMzMi4zNSwyMjUuOTkgMzMyLjQ1LDIyNS44NyAzMzIuNDYsMjI1Ljg2IDMzMi41NiwyMjUuNzMgMzMyLjU3LDIyNS43MiAzMzIuNjksMjI1LjU5IDMzMi43MSwyMjUuNTYgMzMyLjgzLDIyNS40MyAzMzIuMzgsMjI2LjkgMzMyLjM2LDIyNi43OCAzMzIuMzYsMjI2LjczIDMzMi4zNCwyMjYuNjEgMzMyLjM0LDIyNi41NCAzMzIuMzIsMjI2LjMyIDMzMi4zMiwyMjYuMjEgMzMyLjMxLDIyNS45OSAzMzIuMzIsMjI1Ljg3IDMzMi4zMywyMjUuNjYgMzM1LjM5LDIyNy4xNiAzMzUuMywyMjcuMjMgMzM0LjIzLDIyNy42OCAzMzQuMDEsMjI3LjcgMzMzLjkzLDIyNy43IDMzMy43MiwyMjcuNzEgMzMzLjYzLDIyNy43MSAzMzMuNDIsMjI3LjcgMzMzLjM0LDIyNy43IDMzMy4xMywyMjcuNjkgMzMzLjA1LDIyNy42OCAzMzIuODQsMjI3LjY2IDMzMi43NiwyMjcuNjUgMzMyLjU2LDIyNy42MiAzMzIuNDcsMjI3LjYxIDMzMi4yNywyMjcuNTcgMzMyLjE5LDIyNy41NSAzMzEuOTksMjI3LjUgMzMxLjkxLDIyNy40OCAzMzEuNzIsMjI3LjQyIDMzMS42NCwyMjcuNCAzMzEuNDQsMjI3LjM0IDMzMS4zNywyMjcuMzEgMzMxLjE4LDIyNy4yNCAzMzEuMTEsMjI3LjIxIDMzMC45MiwyMjcuMTMgMzMwLjg1LDIyNy4wOSAzMzAuNjYsMjI3IDMzMC42LDIyNi45NyAzMzAuNDIsMjI2Ljg4IDMzMC4zNSwyMjYuODQgMzMwLjE3LDIyNi43MyAzMzAuMTEsMjI2LjcgMzI5LjkzLDIyNi41OCAzMzIuMzMsMjI2LjI0IDMzMi4zMiwyMjYuMjUgMzMyLjI0LDIyNi4zNCAzMzIuMjIsMjI2LjM2IDMzMi4yNiwyMjYuMzIgMzMyLjIzLDIyNi4zNCAzMzIuMiwyMjYuMzggMzMyLjE1LDIyNi40MyAzMzIuMSwyMjYuNDggMzMyLjA0LDIyNi41NSAzMzEuOTcsMjI2LjYzIDMzMS44OSwyMjYuNzEgMzMxLjg5LDIyNi43MSAzMzEuODEsMjI2LjggMzMxLjgsMjI2LjgxIDMzMS43MSwyMjYuOTEgMzMxLjcxLDIyNi45IDMzMS42MSwyMjcuMDEgMzMxLjUsMjI3LjEzIDMzMS41LDIyNy4xMyAzMzEuMzksMjI3LjI2IDMzMS4yNywyMjcuMzkgMzMxLjE0LDIyNy41MyAzMzEsMjI3LjY4IDMzMS4wMSwyMjcuNjcgMzMwLjg3LDIyNy44MiAzMzAuNzMsMjI3Ljk4IDMzMC41OCwyMjguMTUgMzMwLjU5LDIyOC4xNCAzMzAuNDQsMjI4LjMxIDMzMC4yOCwyMjguNDkgMzMwLjEyLDIyOC42NyAzMzAuMTIsMjI4LjY3IDMyOS45NiwyMjguODUgMzI5Ljk2LDIyOC44NSAzMjkuNjMsMjI5LjIzIDMyOS42MywyMjkuMjMgMzI5LjI5LDIyOS42MyAzMjkuMywyMjkuNjIgMzI4Ljk0LDIzMC4wNCAzMjguOTUsMjMwLjAzIDMyOC42LDIzMC40NSAzMjguNTYsMjMwLjQ5IDMyOC4zMiwyMzAuNzcgMzI4LjIyLDIzMC44NyAzMjcuOTgsMjMxLjEgMzI3Ljg2LDIzMS4yIDMyNy42MiwyMzEuNCAzMjcuNDgsMjMxLjUxIDMyNy4yNCwyMzEuNjcgMzI3LjA3LDIzMS43NyAzMjYuODQsMjMxLjg5IDMyNi42NCwyMzEuOTggMzI2LjQsMjMyLjA4IDMyNi4xOCwyMzIuMTUgMzI1Ljk0LDIzMi4yMSAzMjUuNywyMzIuMjUgMzI1LjQ3LDIzMi4yNyAzMjUuMjIsMjMyLjI4IDMyNC45OSwyMzIuMjggMzI0Ljc1LDIzMi4yNiAzMjQuNTIsMjMyLjIyIDMyNC4yOSwyMzIuMTcgMzI0LjA2LDIzMi4xIDMyMy44NywyMzIuMDMgMzIzLjY0LDIzMS45NCAzMjMuNDcsMjMxLjg2IDMyMy4yNCwyMzEuNzQgMzIzLjEsMjMxLjY1IDMyMi44OCwyMzEuNSAzMjIuNzYsMjMxLjQxIDMyMi41NCwyMzEuMjQgMzIyLjQ0LDIzMS4xNiAzMjIuMjMsMjMwLjk2IDMyMi4xNSwyMzAuODggMzIxLjkzLDIzMC42NiAzMjEuODYsMjMwLjU5IDMyMS42NSwyMzAuMzUgMzIxLjYsMjMwLjI4IDMyMS4zOSwyMzAuMDEgMzIxLjM0LDIyOS45NSAzMjEuMTQsMjI5LjY3IDMyMS4xLDIyOS42MSAzMjAuODksMjI5LjMxIDMyMC44NiwyMjkuMjYgMzIwLjY2LDIyOC45NCAzMjAuNjMsMjI4Ljg5IDMyMC40MywyMjguNTUgMzIwLjQxLDIyOC41MSAzMjAuMjIsMjI4LjE1IDMyMC4yLDIyOC4xMSAzMjAuMDEsMjI3Ljc0IDMxOS45OSwyMjcuNzEgMzE5LjgsMjI3LjMyIDMxOS43OCwyMjcuMjkgMzE5LjYsMjI2LjkgMzE5LjU4LDIyNi44NiAzMTkuNCwyMjYuNDUgMzE5LjM5LDIyNi40MSAzMTkuMDMsMjI1LjU2IDMxOS4wMSwyMjUuNTIgMzE4LjY4LDIyNC42MyAzMTguNjYsMjI0LjU5IDMxOC4zNCwyMjMuNjcgMzE4LjMyLDIyMy42NCAzMTguMDIsMjIyLjcgMzE4LjAxLDIyMi42NyAzMTcuNzEsMjIxLjczIDMxNy43LDIyMS43IDMxNy40MywyMjAuNzUgMzE3LjQyLDIyMC43MiAzMTcuMTYsMjE5Ljc4IDMxNy4xNSwyMTkuNzUgMzE2LjkyLDIxOC44MiAzMTYuOTEsMjE4LjggMzE2LjY5LDIxNy45IDMxNi42OCwyMTcuODcgMzE2LjQ4LDIxNi45OSAzMTYuNDcsMjE2Ljk3IDMxNi4yOSwyMTYuMTMgMzE2LjI5LDIxNi4xMSAzMTYuMiwyMTUuNzEgMzE2LjIsMjE1LjcgMzE2LjEyLDIxNS4zMSAzMTYuMTIsMjE1LjMgMzE2LjA1LDIxNC45MiAzMTYuMDUsMjE0LjkxIDMxNS45OCwyMTQuNTUgMzE1Ljk3LDIxNC41MyAzMTUuOTEsMjE0LjE4IDMxNS45MSwyMTQuMTcgMzE1Ljg1LDIxMy44NCAzMTUuODUsMjEzLjgzIDMxNS44LDIxMy41MSAzMTUuOCwyMTMuNSAzMTUuNzUsMjEzLjIgMzE1Ljc1LDIxMy4xOSAzMTUuNzEsMjEyLjkyIDMxNS43LDIxMi44OSAzMTUuNjcsMjEyLjY0IDMxNS42NywyMTIuNjIgMzE1LjY0LDIxMi4zOSAzMTUuNjMsMjEyLjM1IDMxNS42MSwyMTIuMTQgMzE1LjYxLDIxMi4xMiAzMTUuNTksMjExLjkzIDMxNS41OSwyMTEuODggMzE1LjU4LDIxMS43MiAzMTUuNTgsMjExLjY2IDMxNS41NSwyMTAuOTggMzE1LjU1LDIxMC45MiAzMTUuNTUsMjEwLjI3IDMxNS41NSwyMTAuMiAzMTUuNTgsMjA5LjU4IDMxNS41OCwyMDkuNSAzMTUuNjMsMjA4LjkxIDMxNS42NCwyMDguODQgMzE1LjcsMjA4LjI4IDMxNS43MiwyMDguMiAzMTUuOCwyMDcuNjYgMzE1LjgyLDIwNy41OCAzMTUuOTMsMjA3LjA3IDMxNS45NSwyMDYuOTggMzE2LjA4LDIwNi41IDMxNi4xMSwyMDYuNDEgMzE2LjI1LDIwNS45NSAzMTYuMjksMjA1Ljg2IDMxNi40NSwyMDUuNDMgMzE2LjQ5LDIwNS4zNCAzMTYuNjcsMjA0LjkzIDMxNi43MiwyMDQuODQgMzE2LjkxLDIwNC40NiAzMTYuOTcsMjA0LjM2IDMxNy4xOCwyMDQuMDEgMzE3LjI0LDIwMy45MSAzMTcuNDcsMjAzLjU4IDMxNy41NCwyMDMuNDkgMzE3Ljc4LDIwMy4xOCAzMTcuODUsMjAzLjA5IDMxOC4xMSwyMDIuODEgMzE4LjE5LDIwMi43MiAzMTguNDYsMjAyLjQ1IDMxOC41NCwyMDIuMzggMzE4LjgyLDIwMi4xMyAzMTguOSwyMDIuMDYgMzE5LjE5LDIwMS44NCAzMTkuMjgsMjAxLjc3IDMxOS41OCwyMDEuNTcgMzE5LjY4LDIwMS41MSAzMTkuOTksMjAxLjMyIDMyMC4wNywyMDEuMjcgMzIwLjM5LDIwMS4xIDMyMC40OCwyMDEuMDYgMzIwLjgxLDIwMC45IDMyMC44OSwyMDAuODcgMzIxLjIyLDIwMC43MyAzMjEuMzEsMjAwLjcgMzIxLjY1LDIwMC41OCAzMjEuNzMsMjAwLjU1IDMyMi4wOCwyMDAuNDUgMzIyLjE1LDIwMC40MyAzMjIuNSwyMDAuMzQgMzIyLjU4LDIwMC4zMiAzMjIuOTMsMjAwLjI1IDMyMywyMDAuMjMgMzIzLjM2LDIwMC4xNyAzMjMuNDMsMjAwLjE2IDMyMy43OSwyMDAuMTEgMzIzLjg1LDIwMC4xMSAzMjQuMjEsMjAwLjA3IDMyNC4yNywyMDAuMDYgMzI0LjY0LDIwMC4wNCAzMjQuNzIsMjAwLjAzIDMyNS40NSwyMDAuMDIgMzI1LjU1LDIwMC4wMiAzMjYuMjgsMjAwLjA0IDMyNi4zNiwyMDAuMDQgMzI3LjA4LDIwMC4wOSAzMjcuMTYsMjAwLjEgMzI3Ljg2LDIwMC4xOCAzMjcuOTMsMjAwLjE5IDMyOC42MSwyMDAuMjkgMzI4LjY3LDIwMC4zIDMyOS4zMiwyMDAuNDMgMzI5LjM4LDIwMC40NCAzMjkuOTksMjAwLjU3IDMzMC4wNCwyMDAuNTggMzMwLjYyLDIwMC43MiAzMzAuNjUsMjAwLjczIDMzMC45MywyMDAuOCAzMzAuOTUsMjAwLjgxIDMzMS4yMSwyMDAuODggMzMxLjIzLDIwMC44OSAzMzEuNDcsMjAwLjk2IDMzMS41LDIwMC45NyAzMzEuNzMsMjAxLjA0IDMzMS43NSwyMDEuMDQgMzMxLjk3LDIwMS4xMSAzMzEuOTgsMjAxLjExIDMzMi4xOSwyMDEuMTggMzMyLjIsMjAxLjE5IDMzMi4zOSwyMDEuMjUgMzMyLjQxLDIwMS4yNSAzMzIuNTgsMjAxLjMxIDMzMi41OSwyMDEuMzIgMzMyLjc1LDIwMS4zNyAzMzIuNzYsMjAxLjM4IDMzMi45LDIwMS40MiAzMzIuOTIsMjAxLjQzIDMzMy4wMywyMDEuNDggMzMzLjEzLDIwMS41MSAzMzMuMTUsMjAxLjUyIDMzMy4yMywyMDEuNTUgMzMzLjI1LDIwMS41NiAzMzMuMzEsMjAxLjU4IDMzMy4zMywyMDEuNTkgMzMzLjM2LDIwMS42IDMzMy4zLDIwMS41OCAzMzMuMzIsMjAxLjU5IDMzMS41OCwyMDEuODIgMzMxLjgzLDIwMS42NCAzMzEuODksMjAxLjYgMzMyLjE1LDIwMS40MiAzMzIuMjEsMjAxLjM4IDMzMi40OCwyMDEuMjIgMzMyLjU1LDIwMS4xOCAzMzIuODMsMjAxLjAzIDMzMi45LDIwMC45OSAzMzMuMTksMjAwLjg1IDMzMy4yNywyMDAuODEgMzMzLjU3LDIwMC42OCAzMzMuNjQsMjAwLjY1IDMzMy45NSwyMDAuNTMgMzM0LjAyLDIwMC41IDMzNC4zNCwyMDAuMzkgMzM0LjQyLDIwMC4zNyAzMzQuNzUsMjAwLjI3IDMzNC44MywyMDAuMjUgMzM1LjE4LDIwMC4xNyAzMzUuMjUsMjAwLjE1IDMzNS42MSwyMDAuMDggMzM1LjY4LDIwMC4wNyAzMzYuMDUsMjAwLjAxIDMzNi4xMiwyMDAgMzM2LjUsMTk5Ljk1IDMzNi41OCwxOTkuOTUgMzM2Ljk3LDE5OS45MiAzMzcuMDQsMTk5LjkxIDMzNy40NCwxOTkuODkgMzM3LjUxLDE5OS44OSAzMzcuOTMsMTk5Ljg5IDMzNy45OCwxOTkuODkgMzM4LjQ0LDE5OS45IDMzOC40OCwxOTkuOTEgMzM4LjkyLDE5OS45MyAzMzguOTcsMTk5LjkzIDMzOS40LDE5OS45NiAzMzkuNDQsMTk5Ljk2IDMzOS44NiwyMDAgMzM5LjksMjAwLjAxIDM0MC4zMSwyMDAuMDYgMzQwLjM2LDIwMC4wNiAzNDAuNzUsMjAwLjEyIDM0MC44LDIwMC4xMyAzNDEuMTgsMjAwLjE5IDM0MS4yMywyMDAuMiAzNDEuNiwyMDAuMjcgMzQxLjAyLDIwMC4yNSAzNDEuMDcsMjAwLjI1IDM0MC41NSwyMDAuMzkgMzQwLjU2LDIwMC4zOCAzNDAuNjMsMjAwLjM2IDM0MC42NSwyMDAuMzUgMzQwLjcsMjAwLjMzIDM0MC43NCwyMDAuMzEgMzQwLjc1LDIwMC4zMSAzNDAuODEsMjAwLjI5IDM0MC44NSwyMDAuMjcgMzQwLjk5LDIwMC4yMyAzNDEuMDIsMjAwLjIyIDM0MS4yLDIwMC4xNiAzNDEuMjMsMjAwLjE2IDM0MS40NSwyMDAuMDkgMzQxLjQ5LDIwMC4wOCAzNDEuNzUsMjAwLjAxIDM0MS43OSwyMDAgMzQyLjA5LDE5OS45MyAzNDIuMTMsMTk5LjkyIDM0Mi40NiwxOTkuODQgMzQyLjUsMTk5Ljg0IDM0Mi44NywxOTkuNzYgMzQyLjkxLDE5OS43NSAzNDMuMzEsMTk5LjY4IDM0My4zNiwxOTkuNjcgMzQzLjc4LDE5OS42MSAzNDMuODMsMTk5LjYgMzQ0LjI5LDE5OS41NCAzNDQuMzQsMTk5LjU0IDM0NC44MiwxOTkuNDkgMzQ0Ljg3LDE5OS40OCAzNDUuMzcsMTk5LjQ1IDM0NS40MywxOTkuNDUgMzQ1Ljk1LDE5OS40MyAzNDYuMDEsMTk5LjQzIDM0Ni41NSwxOTkuNDIgMzQ2LjYyLDE5OS40MiAzNDcuMTcsMTk5LjQ0IDM0Ny4yNCwxOTkuNDQgMzQ3LjgsMTk5LjQ4IDM0Ny44OCwxOTkuNDkgMzQ4LjQ1LDE5OS41NSAzNDguNTMsMTk5LjU2IDM0OS4xMSwxOTkuNjUgMzQ5LjIsMTk5LjY3IDM0OS43OSwxOTkuNzkgMzQ5Ljg3LDE5OS44MSAzNTAuNDcsMTk5Ljk2IDM1MC41NiwxOTkuOTggMzUxLjE1LDIwMC4xNyAzNTEuMjUsMjAwLjIgMzUxLjg0LDIwMC40MiAzNTEuOTQsMjAwLjQ2IDM1Mi41MiwyMDAuNzIgMzUyLjYyLDIwMC43NyAzNTMuMjEsMjAxLjA2IDM1My4zMSwyMDEuMTIgMzUzLjg4LDIwMS40NiAzNTMuOTYsMjAxLjUxIDM1NC4yNCwyMDEuNyAzNTQuMjksMjAxLjczIDM1NC41NywyMDEuOTMgMzU0LjYyLDIwMS45NyAzNTQuODksMjAyLjE4IDM1NC45NCwyMDIuMjIgMzU1LjIxLDIwMi40NCAzNTUuMjYsMjAyLjQ4IDM1NS41MywyMDIuNzIgMzU1LjU4LDIwMi43NiAzNTUuODQsMjAzLjAxIDM1NS44OSwyMDMuMDUgMzU2LjE1LDIwMy4zMiAzNTYuMTksMjAzLjM2IDM1Ni40NSwyMDMuNjMgMzU2LjQ5LDIwMy42OCAzNTYuNzQsMjAzLjk3IDM1Ni43OCwyMDQuMDIgMzU3LjAzLDIwNC4zMiAzNTcuMTMsMjA0LjQ2IDM1Ny4yOSwyMDQuNzEgMzU3LjQxLDIwNC45MiAzNTcuNTYsMjA1LjIxIDM1Ny42NCwyMDUuNCAzNTcuNzYsMjA1LjczIDM1Ny44MSwyMDUuOSAzNTcuOSwyMDYuMjcgMzU3LjkzLDIwNi40MSAzNTgsMjA2LjgxIDM1OC4wMiwyMDYuOTMgMzU4LjA3LDIwNy4zNyAzNTguMDgsMjA3LjQ4IDM1OC4xLDIwNy45NSAzNTguMTEsMjA4LjA0IDM1OC4xMSwyMDguNTQgMzU4LjExLDIwOC42MiAzNTguMDksMjA5LjE2IDM1OC4wOSwyMDkuMjMgMzU4LjA1LDIwOS43OSAzNTguMDQsMjA5Ljg2IDM1Ny45OCwyMTAuNDUgMzU3Ljk3LDIxMC41MSAzNTcuODgsMjExLjEyIDM1Ny44OCwyMTEuMTcgMzU3Ljc3LDIxMS44MSAzNTcuNzYsMjExLjg2IDM1Ny42MywyMTIuNTIgMzU3LjYyLDIxMi41NiAzNTcuNDcsMjEzLjI0IDM1Ny40NiwyMTMuMjggMzU3LjI5LDIxMy45OCAzNTcuMjgsMjE0LjAyIDM1Ny4wOSwyMTQuNzMgMzU3LjA4LDIxNC43NyAzNTYuODYsMjE1LjUgMzU2Ljg1LDIxNS41MyAzNTYuNjIsMjE2LjI3IDM1Ni42MSwyMTYuMzEgMzU2LjM1LDIxNy4wNiAzNTYuMzQsMjE3LjA5IDM1Ni4wNywyMTcuODUgMzU2LjA1LDIxNy44OCAzNTUuNzYsMjE4LjY1IDM1NS43NSwyMTguNjggMzU1LjQzLDIxOS40NSAzNTUuNDIsMjE5LjQ5IDM1NS4wOCwyMjAuMjYgMzU1LjA3LDIyMC4yOSAzNTQuNzEsMjIxLjA3IDM1NC43LDIyMS4xIDM1NC4zMywyMjEuODggMzU0LjMxLDIyMS45MSAzNTMuOTIsMjIyLjY4IDM1My45LDIyMi43MiAzNTMuNDksMjIzLjQ5IDM1My40NywyMjMuNTIgMzUzLjA0LDIyNC4yOSAzNTMuMDIsMjI0LjMyIDM1Mi41NywyMjUuMDggMzUyLjU1LDIyNS4xMiAzNTIuMDksMjI1Ljg3IDM1Mi4wNiwyMjUuOSAzNTEuNTgsMjI2LjY0IDM1MS44NiwyMjUuMzIgMzUxLjg2LDIyNS4zMyAzNTEuOCwyMjUuMDcgMzUxLjgsMjI1LjA5IDM1MS43OSwyMjUuMDYgMzUxLjgsMjI1LjA4IDM1MS43NiwyMjQuOTggMzUxLjc3LDIyNS4wMSAzNTEuNzQsMjI0LjkyIDM1MS43NSwyMjQuOTYgMzUxLjcsMjI0Ljg1IDM1MS43MiwyMjQuODkgMzUxLjY2LDIyNC43OCAzNTEuNjksMjI0LjgzIDM1MS42MiwyMjQuNzMgMzUxLjY2LDIyNC43OSAzNTEuNTksMjI0LjcgMzUxLjYzLDIyNC43NSAzNTEuNTUsMjI0LjY1IDM1MS42LDIyNC43MSAzNTEuNTEsMjI0LjYyIDM1MS41OCwyMjQuNjggMzUxLjQ4LDIyNC42IDM1MS41NiwyMjQuNjYgMzUxLjQ2LDIyNC41OSAzNTEuNTUsMjI0LjY1IDM1MS40NSwyMjQuNTggMzUxLjU1LDIyNC42NCAzNTEuNDQsMjI0LjU4IDM1MS41NSwyMjQuNjQgMzUxLjQ2LDIyNC41OSAzNTEuNTgsMjI0LjY1IDM1MS40OCwyMjQuNjEgMzUxLjYyLDIyNC42NiAzNTEuNTIsMjI0LjYzIDM1MS42NywyMjQuNjggMzUxLjU5LDIyNC42NSAzNTEuNzYsMjI0LjcgMzUxLjY3LDIyNC42OCAzNTEuODYsMjI0LjcxIDM1MS43OSwyMjQuNyAzNTEuODksMjI0LjcyIDM1MS44NSwyMjQuNzEgMzUxLjk1LDIyNC43MyAzNTEuOTIsMjI0LjcyIDM1Mi4wMywyMjQuNzQgMzUyLDIyNC43MyAzNTIuMTEsMjI0Ljc1IDM1Mi4wNywyMjQuNzQgMzUyLjE5LDIyNC43NSAzNTIuMTUsMjI0Ljc1IDM1Mi4yNywyMjQuNzYgMzUyLjI0LDIyNC43NSAzNTIuMzcsMjI0Ljc2IDM1Mi4zMywyMjQuNzYgMzUyLjQ3LDIyNC43NiAzNTIuNDQsMjI0Ljc2IDM1Mi41OCwyMjQuNzYgMzUyLjU0LDIyNC43NiAzNTIuNjgsMjI0Ljc2IDM1Mi42NiwyMjQuNzYgMzUyLjgxLDIyNC43NiAzNTIuNzgsMjI0Ljc2IDM1Mi45NCwyMjQuNzUgMzUyLjkxLDIyNC43NiAzNTMuMDcsMjI0Ljc1IDM1My4wNCwyMjQuNzUgMzUzLjIxLDIyNC43NCAzNTMuMTgsMjI0Ljc0IDM1My4zNSwyMjQuNzIgMzUzLjMzLDIyNC43MyAzNTMuNTEsMjI0LjcxIDM1My40OCwyMjQuNzEgMzUzLjY3LDIyNC42OSAzNTMuNjQsMjI0LjY5IDM1My44MywyMjQuNjcgMzUzLjgxLDIyNC42NyAzNTQuMDEsMjI0LjY0IDM1My45OCwyMjQuNjUgMzU0LjE5LDIyNC42MiAzNTQuMTcsMjI0LjYyIDM1NC4zOCwyMjQuNTkgMzU0LjM2LDIyNC41OSAzNTQuNTgsMjI0LjU1IDM1NC41NSwyMjQuNTYgMzU0Ljc3LDIyNC41MSAzNTQuNzYsMjI0LjUyIDM1NC45OSwyMjQuNDcgMzU1LDIyNC40NyAzNTUuMSwyMjQuNDUgMzU1LjEyLDIyNC40NCAzNTUuMjEsMjI0LjQzIDM1NS4yNywyMjQuNDIgMzU1LjM2LDIyNC40IDM1NS40MSwyMjQuNCAzNTUuNSwyMjQuMzkgMzU1LjU1LDIyNC4zOCAzNTUuNjMsMjI0LjM4IDM1NS42OSwyMjQuMzcgMzU1Ljc2LDIyNC4zNyAzNTUuODIsMjI0LjM2IDM1NS44OCwyMjQuMzYgMzU1Ljk2LDIyNC4zNiAzNTYuMDMsMjI0LjM2IDM1Ni4xMiwyMjQuMzYgMzU2LjE4LDIyNC4zNyAzNTYuMjYsMjI0LjM4IDM1Ni4zMiwyMjQuMzggMzU2LjQxLDIyNC4zOSAzNTYuNDcsMjI0LjQgMzU2LjYsMjI0LjQzIDM1Ni42NSwyMjQuNDQgMzU2Ljg1LDIyNC41IDM1Ni45MywyMjQuNTIgMzU3LjI0LDIyNC42NyAzNTcuMzEsMjI0LjcxIDM1Ny42NiwyMjQuOTggMzU3LjcxLDIyNS4wMiAzNTguMDMsMjI1LjQzIDM1OC4wNiwyMjUuNDkgMzU4LjI0LDIyNS45NCAzNTguMjYsMjI2IDM1OC4zMiwyMjYuNDcgMzU4LjMyLDIyNi41NCAzNTguMjksMjI2Ljg4IDM1OC4yNywyMjYuOTUgMzU4LjIsMjI3LjIyIDM1OC4xNywyMjcuMzEgMzU4LjA5LDIyNy41MSAzNTguMDUsMjI3LjU5IDM1Ny45NiwyMjcuNzUgMzU3LjkxLDIyNy44NCAzNTcuODQsMjI3Ljk1IDM1Ny43NywyMjguMDQgMzU3LjY5LDIyOC4xNCAzNTcuNjEsMjI4LjI0IDM1Ny41NSwyMjguMzEgMzU3LjQ2LDIyOC40MSAzNTcuNCwyMjguNDcgMzU3LjMsMjI4LjU4IDM1Ny4yNCwyMjguNjMgMzU3LjEzLDIyOC43NCAzNTcuMDgsMjI4Ljc4IDM1Ni45NiwyMjguODkgMzU2LjksMjI4LjkzIDM1Ni43NywyMjkuMDQgMzU2LjczLDIyOS4wOCAzNTYuNTgsMjI5LjE5IDM1Ni41NSwyMjkuMjIgMzU2LjM5LDIyOS4zMyAzNTYuMzUsMjI5LjM2IDM1Ni4xOCwyMjkuNDcgMzU2LjE0LDIyOS41IDM1NS45NywyMjkuNjEgMzU1LjkzLDIyOS42MyAzNTUuNzUsMjI5Ljc0IDM1NS43MiwyMjkuNzYgMzU1LjUzLDIyOS44NyAzNTUuNDksMjI5LjkgMzU1LjI5LDIzMCAzNTUuMjUsMjMwLjAyIDM1NS4wNSwyMzAuMTIgMzU1LjAxLDIzMC4xNSAzNTQuOCwyMzAuMjQgMzU0Ljc0LDIzMC4yNyAzNTQuNTQsMjMwLjM2IDM1NC40NywyMzAuMzkgMzU0LjI1LDIzMC40NyAzNTQuMTgsMjMwLjUgMzUzLjk1LDIzMC41OCAzNTMuODksMjMwLjYgMzUzLjY0LDIzMC42NyAzNTMuNTksMjMwLjY4IDM1My4zMywyMzAuNzUgMzUzLjI4LDIzMC43NiAzNTMuMDIsMjMwLjgyIDM1Mi45OCwyMzAuODMgMzUyLjcxLDIzMC44OSAzNTIuNjYsMjMwLjkgMzUyLjM4LDIzMC45NSAzNTIuMzQsMjMwLjk1IDM1Mi4wNywyMzEgMzUyLjAyLDIzMSAzNTEuNzQsMjMxLjA0IDM1MS43LDIzMS4wNCAzNTEuNDIsMjMxLjA3IDM1MS4zOCwyMzEuMDggMzUxLjEsMjMxLjEgMzUxLjA1LDIzMS4xIDM1MC43OCwyMzEuMTIgMzUwLjczLDIzMS4xMiAzNTAuNDYsMjMxLjEzIDM1MC40MSwyMzEuMTMgMzUwLjE1LDIzMS4xMyAzNTAuMDksMjMxLjEzIDM0OS44MywyMzEuMTIgMzQ5LjcxLDIzMS4xMSAzNDkuMjcsMjMxLjA3IDM0OS4wNywyMzEuMDQgMzQ4LjkyLDIzMS4wMSAzNDguOTMsMjMxLjAxIDM0OC43OSwyMzAuOTggMzQ4LjgzLDIzMC45OSAzNDguNjksMjMwLjk3IDM0OC43MywyMzAuOTcgMzQ4LjYsMjMwLjk1IDM0OC42NywyMzAuOTYgMzQ4LjU1LDIzMC45NSAzNDguNjEsMjMwLjk1IDM0OC41LDIzMC45NCAzNDguNTksMjMwLjk1IDM0OC40OSwyMzAuOTUgMzQ4LjYsMjMwLjk1IDM0OC41MSwyMzAuOTUgMzQ4LjY0LDIzMC45NCAzNDguNTUsMjMwLjk1IDM0OC43MiwyMzAuOTMgMzQ4LjY0LDIzMC45NCAzNDguODEsMjMwLjkgMzQ4Ljc0LDIzMC45MiAzNDguOTUsMjMwLjg0IDM0OC44OCwyMzAuODcgMzQ5LjA2LDIzMC43OCAzNDksMjMwLjgyIDM0OS4yMiwyMzAuNjcgMzQ5LjE2LDIzMC43MiAzNDkuMzQsMjMwLjU2IDM0OS4yOSwyMzAuNjEgMzQ5LjQzLDIzMC40NCAzNDkuMzksMjMwLjUgMzQ5LjUsMjMwLjM1IDM0OS40NiwyMzAuNDEgMzQ5LjU1LDIzMC4yNiAzNDkuNTEsMjMwLjMzIDM0OS41NiwyMzAuMjEgMzQ5LjUzLDIzMC4yOSAzNDkuNTcsMjMwLjE4IDM0OS41NCwyMzAuMjcgMzQ5LjU3LDIzMC4xOCAzNDkuNTQsMjMwLjI4IDM0OS41NiwyMzAuMiAzNDkuNTMsMjMwLjMxIDM0OS41NSwyMzAuMjUgMzQ5LjUyLDIzMC4zNyAzNDkuNTMsMjMwLjMyIDM0OS41MSwyMzAuNDUgMzQ5LjUyLDIzMC40MiAzNDkuNDksMjMwLjU2IDM0OS41LDIzMC41NCAzNDkuNDgsMjMwLjY4IDM0OS40OCwyMzAuNjUgMzQ5LjQ2LDIzMC44MSAzNDkuNDYsMjMwLjggMzQ5LjQ0LDIzMC45NyAzNDkuNDIsMjMxLjE1IDM0OS40MiwyMzEuMTMgMzQ5LjQsMjMxLjMyIDM0OS40LDIzMS4zMyAzNDkuMzcsMjMxLjU0IDM0OS4zNSwyMzEuNzUgMzQ1LjY3LDIzMS4zMiAzNDUuNywyMzEuMSAiIGNsaXAtcGF0aD0idXJsKCNTVkdJRF82XykiIGlkPSJwb2x5Z29uNjA0MTQiLz4mI3hhOwkJPHBhdGggc3R5bGU9ImZpbGw6IzMzNjc5MSIgZD0ibSAzNTUuMzUsMjI2LjI5IGMgLTQuOTksMS4wMiAtNS4zMiwtMC42NiAtNS4zMiwtMC42NiA1LjI2LC03LjgxIDcuNDYsLTE3LjcxIDUuNTYsLTIwLjE0IC01LjE4LC02LjYxIC0xNC4xNCwtMy40OSAtMTQuMjksLTMuNCBsIC0wLjA1LDAuMDEgYyAtMC45OSwtMC4yIC0yLjA5LC0wLjMzIC0zLjMyLC0wLjM0IC0yLjI2LC0wLjA0IC0zLjk2LDAuNTkgLTUuMjYsMS41NyAwLDAgLTE1Ljk4LC02LjU4IC0xNS4yNCw4LjI4IDAuMTYsMy4xNiA0LjUzLDIzLjkzIDkuNzUsMTcuNjYgMS45MSwtMi4yOSAzLjc1LC00LjI0IDMuNzUsLTQuMjQgMC45MiwwLjYxIDIuMDEsMC45MiAzLjE2LDAuODEgbCAwLjA5LC0wLjA4IGMgLTAuMDIsMC4yOSAtMC4wMSwwLjU2IDAuMDQsMC45IC0xLjM0LDEuNSAtMC45NCwxLjc2IC0zLjY0LDIuMzIgLTIuNzIsMC41NiAtMS4xMiwxLjU2IC0wLjA4LDEuODIgMS4yNywwLjMxIDQuMTksMC43NyA2LjE3LC0yIGwgLTAuMDgsMC4zMSBjIDAuNTMsMC40MiAwLjksMi43NSAwLjg0LDQuODUgLTAuMDYsMi4xMSAtMC4xLDMuNTUgMC4zMSw0LjY4IDAuNDIsMS4xMyAwLjgzLDMuNjcgNC4zNiwyLjkxIDIuOTUsLTAuNjQgNC40OSwtMi4yNyA0LjcsLTUuMDEgMC4xNSwtMS45NCAwLjQ5LC0xLjY2IDAuNTEsLTMuMzkgbCAwLjI3LC0wLjgzIGMgMC4zMSwtMi42MyAwLjA1LC0zLjQ4IDEuODcsLTMuMDkgbCAwLjQ0LDAuMDQgYyAxLjM0LDAuMDYgMy4wOSwtMC4yMSA0LjEyLC0wLjcgMi4yMSwtMS4wMiAzLjUzLC0yLjc0IDEuMzQsLTIuMjggeiIgY2xpcC1wYXRoPSJ1cmwoI1NWR0lEXzZfKSIgaWQ9InBhdGg2MDQxNiIgaW5rc2NhcGU6Y29ubmVjdG9yLWN1cnZhdHVyZT0iMCIvPiYjeGE7CQkmI3hhOwkJCTxwYXRoIHN0eWxlPSJmaWxsOm5vbmU7c3Ryb2tlOiNmZmZmZmY7c3Ryb2tlLXdpZHRoOjEuMjM1OTk5OTQ7c3Ryb2tlLWxpbmVjYXA6cm91bmQ7c3Ryb2tlLWxpbmVqb2luOnJvdW5kO3N0cm9rZS1taXRlcmxpbWl0OjEwIiBkPSJtIDMzNi44OCwyMjcuOCBjIC0wLjE0LDQuOSAwLjA0LDkuODQgMC41MSwxMS4wNCAwLjQ4LDEuMiAxLjUxLDMuNTQgNS4wNCwyLjc4IDIuOTUsLTAuNjMgNC4wMiwtMS44NSA0LjQ5LC00LjU2IDAuMzQsLTEuOTkgMSwtNy41MSAxLjA5LC04LjY1IiBjbGlwLXBhdGg9InVybCgjU1ZHSURfNl8pIiBpZD0icGF0aDYwNDE4IiBpbmtzY2FwZTpjb25uZWN0b3ItY3VydmF0dXJlPSIwIi8+JiN4YTsJCSYjeGE7CQkJPHBhdGggc3R5bGU9ImZpbGw6bm9uZTtzdHJva2U6I2ZmZmZmZjtzdHJva2Utd2lkdGg6MS4yMzU5OTk5NDtzdHJva2UtbGluZWNhcDpyb3VuZDtzdHJva2UtbGluZWpvaW46cm91bmQ7c3Ryb2tlLW1pdGVybGltaXQ6MTAiIGQ9Im0gMzMyLjY0LDIwMy4yMSBjIDAsMCAtMTYsLTYuNTQgLTE1LjI1LDguMzMgMC4xNiwzLjE3IDQuNTMsMjMuOTQgOS43NSwxNy42NiAxLjkxLC0yLjI5IDMuNjQsLTQuMDkgMy42NCwtNC4wOSIgY2xpcC1wYXRoPSJ1cmwoI1NWR0lEXzZfKSIgaWQ9InBhdGg2MDQyMCIgaW5rc2NhcGU6Y29ubmVjdG9yLWN1cnZhdHVyZT0iMCIvPiYjeGE7CQkmI3hhOwkJCTxwYXRoIHN0eWxlPSJmaWxsOm5vbmU7c3Ryb2tlOiNmZmZmZmY7c3Ryb2tlLXdpZHRoOjEuMjM1OTk5OTQ7c3Ryb2tlLWxpbmVjYXA6cm91bmQ7c3Ryb2tlLWxpbmVqb2luOnJvdW5kO3N0cm9rZS1taXRlcmxpbWl0OjEwIiBkPSJtIDM0MS4yOCwyMDIuMDIgYyAtMC41NSwwLjE3IDguOSwtMy40NiAxNC4yNywzLjQgMS45LDIuNDIgLTAuMywxMi4zNCAtNS41NiwyMC4xNCIgY2xpcC1wYXRoPSJ1cmwoI1NWR0lEXzZfKSIgaWQ9InBhdGg2MDQyMiIgaW5rc2NhcGU6Y29ubmVjdG9yLWN1cnZhdHVyZT0iMCIvPiYjeGE7CQkmI3hhOwkJCTxwYXRoIHN0eWxlPSJmaWxsOm5vbmU7c3Ryb2tlOiNmZmZmZmY7c3Ryb2tlLXdpZHRoOjEuMjM1OTk5OTQ7c3Ryb2tlLWxpbmVjYXA6cm91bmQ7c3Ryb2tlLWxpbmVqb2luOmJldmVsO3N0cm9rZS1taXRlcmxpbWl0OjEwIiBkPSJtIDM0OS45OSwyMjUuNTYgYyAwLDAgMC4zNCwxLjY5IDUuMzIsMC42NiAyLjE4LC0wLjQ1IDAuODcsMS4yNyAtMS4zNSwyLjI5IC0xLjgxLDAuODQgLTUuODksMS4wNiAtNS45NSwtMC4xMSAtMC4xNywtMyAyLjE1LC0yLjA4IDEuOTgsLTIuODQgLTAuMTUsLTAuNjggLTEuMTksLTEuMzQgLTEuODcsLTMgLTAuNiwtMS40NSAtOC4yLC0xMi41NyAyLjExLC0xMC45MiAwLjM3LC0wLjA4IC0yLjY5LC05LjggLTEyLjM0LC05Ljk2IC05LjY0LC0wLjE2IC05LjMzLDExLjg2IC05LjMzLDExLjg2IiBjbGlwLXBhdGg9InVybCgjU1ZHSURfNl8pIiBpZD0icGF0aDYwNDI0IiBpbmtzY2FwZTpjb25uZWN0b3ItY3VydmF0dXJlPSIwIi8+JiN4YTsJCSYjeGE7CQkJPHBhdGggc3R5bGU9ImZpbGw6bm9uZTtzdHJva2U6I2ZmZmZmZjtzdHJva2Utd2lkdGg6MS4yMzU5OTk5NDtzdHJva2UtbGluZWNhcDpyb3VuZDtzdHJva2UtbGluZWpvaW46cm91bmQ7c3Ryb2tlLW1pdGVybGltaXQ6MTAiIGQ9Im0gMzM0LjE4LDIyNi41OSBjIC0xLjM0LDEuNSAtMC45NCwxLjc2IC0zLjY0LDIuMzIgLTIuNzIsMC41NiAtMS4xMiwxLjU2IC0wLjA4LDEuODIgMS4yNywwLjMxIDQuMTksMC43NiA2LjE3LC0yLjAxIDAuNiwtMC44NCAtMC4wMSwtMi4xOSAtMC44MywtMi41MyAtMC40LC0wLjE2IC0wLjkzLC0wLjM3IC0xLjYyLDAuNCB6IiBjbGlwLXBhdGg9InVybCgjU1ZHSURfNl8pIiBpZD0icGF0aDYwNDI2IiBpbmtzY2FwZTpjb25uZWN0b3ItY3VydmF0dXJlPSIwIi8+JiN4YTsJCSYjeGE7CQkJPHBhdGggc3R5bGU9ImZpbGw6bm9uZTtzdHJva2U6I2ZmZmZmZjtzdHJva2Utd2lkdGg6MS4yMzU5OTk5NDtzdHJva2UtbGluZWNhcDpyb3VuZDtzdHJva2UtbGluZWpvaW46cm91bmQ7c3Ryb2tlLW1pdGVybGltaXQ6MTAiIGQ9Im0gMzM0LjA5LDIyNi41NiBjIC0wLjE0LC0wLjg5IDAuMjksLTEuOTQgMC43NCwtMy4xNyAwLjY5LC0xLjg0IDIuMjcsLTMuNjggMSwtOS41NCAtMC45NCwtNC4zNiAtNy4yNywtMC45MSAtNy4yNywtMC4zMSAtMC4wMSwwLjU5IDAuMjksMi45OSAtMC4xMSw1Ljc5IC0wLjUxLDMuNjYgMi4zMyw2Ljc1IDUuNTksNi40NCIgY2xpcC1wYXRoPSJ1cmwoI1NWR0lEXzZfKSIgaWQ9InBhdGg2MDQyOCIgaW5rc2NhcGU6Y29ubmVjdG9yLWN1cnZhdHVyZT0iMCIvPiYjeGE7CQk8cGF0aCBzdHlsZT0iZmlsbDojZmZmZmZmIiBkPSJtIDMzMi41OCwyMTMuNDYgYyAtMC4wMywwLjIgMC4zNywwLjc0IDAuODksMC44MSAwLjUyLDAuMDggMC45NiwtMC4zNCAwLjk5LC0wLjU1IDAuMDIsLTAuMiAtMC4zNywtMC40MyAtMC44OSwtMC41IC0wLjUxLC0wLjA3IC0wLjk2LDAuMDMgLTAuOTksMC4yNCB6IiBjbGlwLXBhdGg9InVybCgjU1ZHSURfNl8pIiBpZD0icGF0aDYwNDMwIiBpbmtzY2FwZTpjb25uZWN0b3ItY3VydmF0dXJlPSIwIi8+JiN4YTsJCTxwYXRoIHN0eWxlPSJmaWxsOiNmZmZmZmYiIGQ9Im0gMzMyLjQsMjEzLjM2IDAuMDIsLTAuMDQgMC4wMiwtMC4wMyAwLjAzLC0wLjA0IDAuMDMsLTAuMDMgMC4wMiwtMC4wMiAwLjA0LC0wLjAzIDAuMDIsLTAuMDEgMC4wNCwtMC4wMyAwLjAyLC0wLjAxIDAuMDUsLTAuMDIgMC4wMiwtMC4wMSAwLjA2LC0wLjAyIGggMC4wMSBsIDAuMDYsLTAuMDIgaCAwLjAxIGwgMC4wNywtMC4wMSBoIDAuMDEgbCAwLjA4LC0wLjAxIGggMC4wMSBsIDAuMDgsLTAuMDEgaCAwLjAxIDAuMDggMC4wMSAwLjE4IDAuMDIgbCAwLjE5LDAuMDIgaCAwLjAyIGwgMC4xOSwwLjAzIGggMC4wMSBsIDAuMDksMC4wMiBoIDAuMDEgbCAwLjA4LDAuMDIgSCAzMzQgbCAwLjA4LDAuMDMgaCAwLjAxIGwgMC4wOCwwLjAzIGggMC4wMSBsIDAuMDcsMC4wMyBoIDAuMDEgbCAwLjA2LDAuMDMgMC4wMSwwLjAxIDAuMDYsMC4wMyAwLjAxLDAuMDEgMC4wNSwwLjA0IDAuMDIsMC4wMSAwLjA0LDAuMDQgMC4wMiwwLjAxIDAuMDQsMC4wNCAwLjAyLDAuMDIgMC4wMywwLjA0IDAuMDIsMC4wMyAwLjAyLDAuMDQgMC4wMSwwLjA0IDAuMDEsMC4wNCAwLjAxLDAuMDUgdiAwLjA0IGwgLTAuMDEsMC4wNiAtMC4wMSwwLjA0IC0wLjAxLDAuMDMgLTAuMDIsMC4wNCAtMC4wMSwwLjAyIC0wLjAzLDAuMDUgLTAuMDEsMC4wMiAtMC4wNCwwLjA1IC0wLjAxLDAuMDEgLTAuMDQsMC4wNSAtMC4wMSwwLjAxIC0wLjA1LDAuMDUgLTAuMDEsMC4wMSAtMC4wNiwwLjA1IC0wLjAxLDAuMDEgLTAuMDYsMC4wNSAtMC4wMSwwLjAxIC0wLjA3LDAuMDQgLTAuMDEsMC4wMSAtMC4wOCwwLjA0IC0wLjAyLDAuMDEgLTAuMDgsMC4wMyAtMC4wMSwwLjAxIC0wLjA4LDAuMDMgaCAtMC4wMiBsIC0wLjA5LDAuMDIgaCAtMC4wMiBsIC0wLjA5LDAuMDEgaCAtMC4wMiAtMC4wOSAtMC4wMiBsIC0wLjEsLTAuMDEgaCAtMC4wMiBsIC0wLjEsLTAuMDIgaCAtMC4wMiBsIC0wLjA5LC0wLjAzIC0wLjAyLC0wLjAxIC0wLjA5LC0wLjA0IC0wLjAyLC0wLjAxIC0wLjA5LC0wLjA0IC0wLjAxLC0wLjAxIC0wLjA4LC0wLjA1IC0wLjAxLC0wLjAxIC0wLjA4LC0wLjA2IC0wLjAxLC0wLjAxIC0wLjA3LC0wLjA2IC0wLjAxLC0wLjAxIC0wLjA2LC0wLjA2IC0wLjAxLC0wLjAxIC0wLjA2LC0wLjA2IC0wLjAxLC0wLjAxIC0wLjA1LC0wLjA2IC0wLjAxLC0wLjAxIC0wLjA0LC0wLjA2IC0wLjAxLC0wLjAxIC0wLjAzLC0wLjA2IC0wLjAxLC0wLjAxIC0wLjAzLC0wLjA2IC0wLjAxLC0wLjAyIC0wLjAyLC0wLjA1IC0wLjAxLC0wLjAzIC0wLjAxLC0wLjA1IHYgLTAuMDQgLTAuMDQgbCAwLjAxLC0wLjA1IHogbSAwLjM4LDAuMTUgMC4wMSwtMC4wNSB2IDAuMDQgLTAuMDQgbCAwLjAxLDAuMDUgLTAuMDEsLTAuMDMgMC4wMiwwLjA1IC0wLjAxLC0wLjAyIDAuMDMsMC4wNiAtMC4wMSwtMC4wMSAwLjAzLDAuMDYgLTAuMDEsLTAuMDEgMC4wNCwwLjA2IC0wLjAxLC0wLjAxIDAuMDUsMC4wNiAtMC4wMSwtMC4wMSAwLjA2LDAuMDYgLTAuMDEsLTAuMDEgMC4wNiwwLjA2IC0wLjAxLC0wLjAxIDAuMDcsMC4wNiAtMC4wMSwtMC4wMSAwLjA4LDAuMDYgLTAuMDEsLTAuMDEgMC4wOCwwLjA1IC0wLjAxLC0wLjAxIDAuMDgsMC4wNCAtMC4wMiwtMC4wMSAwLjA5LDAuMDQgLTAuMDIsLTAuMDEgMC4wOSwwLjAzIGggLTAuMDIgbCAwLjEsMC4wMiBoIC0wLjAyIGwgMC4xLDAuMDEgaCAtMC4wMiAwLjA5IC0wLjAyIGwgMC4wOSwtMC4wMSBoIC0wLjAyIGwgMC4wOSwtMC4wMiBoIC0wLjAyIGwgMC4wOCwtMC4wMyBoIC0wLjAxIGwgMC4wOCwtMC4wMyAtMC4wMiwwLjAxIDAuMDgsLTAuMDQgLTAuMDEsMC4wMSAwLjA3LC0wLjA0IC0wLjAxLDAuMDEgMC4wNiwtMC4wNSAtMC4wMSwwLjAxIDAuMDYsLTAuMDUgLTAuMDEsMC4wMSAwLjA1LC0wLjA1IC0wLjAxLDAuMDEgMC4wNCwtMC4wNSAtMC4wMSwwLjAxIDAuMDQsLTAuMDUgLTAuMDEsMC4wMiAwLjAzLC0wLjA1IC0wLjAxLDAuMDIgMC4wMiwtMC4wNCAtMC4wMSwwLjAzIDAuMDEsLTAuMDQgLTAuMDEsMC4wNiB2IC0wLjA0IGwgMC4wMSwwLjA1IC0wLjAxLC0wLjA0IDAuMDEsMC4wNCAtMC4wMiwtMC4wNCAwLjAyLDAuMDMgLTAuMDMsLTAuMDQgMC4wMiwwLjAyIC0wLjA0LC0wLjA0IDAuMDIsMC4wMSAtMC4wNCwtMC4wNCAwLjAyLDAuMDEgLTAuMDUsLTAuMDQgMC4wMSwwLjAxIC0wLjA2LC0wLjAzIDAuMDEsMC4wMSAtMC4wNiwtMC4wMyAwLjAxLDAuMDEgLTAuMDcsLTAuMDMgaCAwLjAxIGwgLTAuMDgsLTAuMDMgaCAwLjAxIGwgLTAuMDgsLTAuMDMgaCAwLjAxIGwgLTAuMDksLTAuMDIgaCAwLjAxIGwgLTAuMDksLTAuMDIgaCAwLjAxIGwgLTAuMTksLTAuMDMgaCAwLjAyIGwgLTAuMTksLTAuMDIgaCAwLjAyIC0wLjE4IDAuMDEgLTAuMDggMC4wMSBsIC0wLjA4LDAuMDEgaCAwLjAxIGwgLTAuMDgsMC4wMSBoIDAuMDEgbCAtMC4wNywwLjAxIGggMC4wMSBsIC0wLjA3LDAuMDIgaCAwLjAxIGwgLTAuMDYsMC4wMiAwLjAyLC0wLjAxIC0wLjA1LDAuMDIgMC4wMiwtMC4wMSAtMC4wNCwwLjAzIDAuMDIsLTAuMDEgLTAuMDQsMC4wMyAwLjAyLC0wLjAyIC0wLjAzLDAuMDMgMC4wMywtMC4wNCB2IDAuMDMgbCAwLjAxLC0wLjA0IHoiIGNsaXAtcGF0aD0idXJsKCNTVkdJRF82XykiIGlkPSJwYXRoNjA0MzIiIGlua3NjYXBlOmNvbm5lY3Rvci1jdXJ2YXR1cmU9IjAiLz4mI3hhOwkJPHBhdGggc3R5bGU9ImZpbGw6I2ZmZmZmZiIgZD0ibSAzNDguMzcsMjEzLjA0IGMgMC4wMywwLjIgLTAuMzcsMC43NCAtMC44OSwwLjgxIC0wLjUyLDAuMDcgLTAuOTYsLTAuMzUgLTAuOTksLTAuNTUgLTAuMDMsLTAuMiAwLjM3LC0wLjQzIDAuODksLTAuNSAwLjUyLC0wLjA2IDAuOTcsMC4wNCAwLjk5LDAuMjQgeiIgY2xpcC1wYXRoPSJ1cmwoI1NWR0lEXzZfKSIgaWQ9InBhdGg2MDQzNCIgaW5rc2NhcGU6Y29ubmVjdG9yLWN1cnZhdHVyZT0iMCIvPiYjeGE7CQk8cGF0aCBzdHlsZT0iZmlsbDojZmZmZmZmIiBkPSJtIDM0OC4yNiwyMTMuMDMgMC4wMSwwLjAyIC0wLjAyLC0wLjAzIDAuMDEsMC4wMSAtMC4wMiwtMC4wMiAwLjAxLDAuMDEgLTAuMDQsLTAuMDMgMC4wMSwwLjAxIC0wLjA0LC0wLjAzIGggMC4wMSBsIC0wLjA1LC0wLjAyIGggMC4wMSBsIC0wLjA2LC0wLjAyIGggMC4wMSBsIC0wLjA2LC0wLjAyIGggMC4wMSBsIC0wLjA3LC0wLjAxIGggMC4wMSBsIC0wLjA4LC0wLjAxIHYgMCBsIC0wLjA4LC0wLjAxIHYgMCBoIC0wLjA4IDAuMDEgLTAuMTggMC4wMSBsIC0wLjE5LDAuMDIgaCAwLjAxIGwgLTAuMTksMC4wMyBoIDAuMDEgbCAtMC4wOSwwLjAyIHYgMCBsIC0wLjA4LDAuMDIgdiAwIGwgLTAuMDgsMC4wMyB2IDAgbCAtMC4wOCwwLjAzIGggMC4wMSBsIC0wLjA3LDAuMDMgaCAwLjAxIGwgLTAuMDYsMC4wMyBoIDAuMDEgbCAtMC4wNiwwLjAzIGggMC4wMSBsIC0wLjA1LDAuMDQgMC4wMSwtMC4wMSAtMC4wNCwwLjA0IDAuMDEsLTAuMDEgLTAuMDMsMC4wNCAwLjAxLC0wLjAxIC0wLjAzLDAuMDQgMC4wMSwtMC4wMSAtMC4wMiwwLjA0IDAuMDEsLTAuMDIgLTAuMDEsMC4wNCB2IC0wLjAzIDAuMDQgLTAuMDIgbCAwLjAxLDAuMDQgLTAuMDEsLTAuMDIgMC4wMiwwLjA0IC0wLjAxLC0wLjAxIDAuMDMsMC4wNSB2IC0wLjAxIGwgMC4wNCwwLjA1IC0wLjAxLC0wLjAxIDAuMDQsMC4wNSB2IC0wLjAxIGwgMC4wNSwwLjA1IHYgMCBsIDAuMDYsMC4wNSBoIC0wLjAxIGwgMC4wNiwwLjA1IGggLTAuMDEgbCAwLjA3LDAuMDQgaCAtMC4wMSBsIDAuMDcsMC4wNCBIIDM0NyBsIDAuMDgsMC4wMyBoIC0wLjAxIGwgMC4wOCwwLjAzIGggLTAuMDEgbCAwLjA5LDAuMDIgaCAtMC4wMSBsIDAuMDksMC4wMSBoIC0wLjAxIDAuMDkgLTAuMDEgbCAwLjEsLTAuMDEgaCAtMC4wMSBsIDAuMSwtMC4wMiBoIC0wLjAxIGwgMC4wOSwtMC4wMyBoIC0wLjAxIGwgMC4wOSwtMC4wNCBoIC0wLjAxIGwgMC4wOSwtMC4wNCBoIC0wLjAxIGwgMC4wOCwtMC4wNSBoIC0wLjAxIGwgMC4wOCwtMC4wNiBoIC0wLjAxIGwgMC4wNywtMC4wNiB2IDAuMDEgbCAwLjA2LC0wLjA2IHYgMCBsIDAuMDYsLTAuMDYgdiAwLjAxIGwgMC4wNSwtMC4wNyB2IDAuMDEgbCAwLjA0LC0wLjA2IHYgMCBsIDAuMDQsLTAuMDYgdiAwLjAxIGwgMC4wMywtMC4wNiB2IDAuMDEgbCAwLjAyLC0wLjA1IHYgMC4wMSBsIDAuMDEsLTAuMDUgdiAwLjAyIC0wLjA0IDAuMDIgeiBtIDAuMjEsLTAuMDIgdiAwLjAyIDAuMDQgMC4wMiBsIC0wLjAxLDAuMDUgdiAwLjAxIGwgLTAuMDIsMC4wNSB2IDAuMDEgbCAtMC4wMywwLjA2IC0wLjAxLDAuMDEgLTAuMDQsMC4wNiB2IDAgbCAtMC4wNCwwLjA2IHYgMC4wMSBsIC0wLjA1LDAuMDYgdiAwLjAxIGwgLTAuMDYsMC4wNiB2IDAgbCAtMC4wNiwwLjA2IHYgMCBsIC0wLjA3LDAuMDYgaCAtMC4wMSBsIC0wLjA4LDAuMDYgdiAwIGwgLTAuMDgsMC4wNSBoIC0wLjAxIGwgLTAuMDgsMC4wNCBoIC0wLjAxIGwgLTAuMDksMC4wNCBoIC0wLjAxIGwgLTAuMDksMC4wMyBoIC0wLjAxIGwgLTAuMSwwLjAyIGggLTAuMDEgbCAtMC4xLDAuMDEgaCAtMC4wMSAtMC4wOSAtMC4wMSBsIC0wLjA5LC0wLjAxIGggLTAuMDEgbCAtMC4wOSwtMC4wMiBoIC0wLjAxIEwgMzQ3LDIxMy45IGggLTAuMDEgbCAtMC4wOCwtMC4wMyBoIC0wLjAxIGwgLTAuMDgsLTAuMDQgaCAtMC4wMSBsIC0wLjA3LC0wLjA0IGggLTAuMDEgbCAtMC4wNiwtMC4wNSBoIC0wLjAxIGwgLTAuMDYsLTAuMDUgdiAwIGwgLTAuMDUsLTAuMDUgdiAtMC4wMSBsIC0wLjA0LC0wLjA1IHYgLTAuMDEgbCAtMC4wNCwtMC4wNSB2IC0wLjAxIGwgLTAuMDMsLTAuMDUgLTAuMDEsLTAuMDEgLTAuMDIsLTAuMDQgLTAuMDEsLTAuMDIgLTAuMDEsLTAuMDQgdiAtMC4wMiAtMC4wNCAtMC4wMyBsIDAuMDEsLTAuMDQgMC4wMSwtMC4wMiAwLjAyLC0wLjA0IDAuMDEsLTAuMDEgMC4wMywtMC4wNCAwLjAxLC0wLjAxIDAuMDMsLTAuMDQgMC4wMSwtMC4wMSAwLjA0LC0wLjA0IDAuMDEsLTAuMDEgMC4wNSwtMC4wNCBoIDAuMDEgbCAwLjA2LC0wLjAzIGggMC4wMSBsIDAuMDYsLTAuMDMgdiAwIGwgMC4wNywtMC4wMyB2IDAgbCAwLjA4LC0wLjAzIHYgMCBsIDAuMDgsLTAuMDMgdiAwIGwgMC4wOSwtMC4wMiB2IDAgbCAwLjA5LC0wLjAyIGggMC4wMSBsIDAuMTksLTAuMDMgaCAwLjAxIGwgMC4xOSwtMC4wMiBoIDAuMDEgMC4xOCAwLjAxIDAuMDggdiAwIGwgMC4wOCwwLjAxIHYgMCBsIDAuMDgsMC4wMSBoIDAuMDEgbCAwLjA3LDAuMDEgaCAwLjAxIGwgMC4wNiwwLjAyIGggMC4wMSBsIDAuMDYsMC4wMiBoIDAuMDEgbCAwLjA1LDAuMDIgaCAwLjAxIGwgMC4wNCwwLjAzIDAuMDEsMC4wMSAwLjA0LDAuMDMgMC4wMSwwLjAxIDAuMDMsMC4wMyAwLjAxLDAuMDIgMC4wMiwwLjAzIDAuMDEsMC4wMiB6IiBjbGlwLXBhdGg9InVybCgjU1ZHSURfNl8pIiBpZD0icGF0aDYwNDM2IiBpbmtzY2FwZTpjb25uZWN0b3ItY3VydmF0dXJlPSIwIi8+JiN4YTsJCSYjeGE7CQkJPHBhdGggc3R5bGU9ImZpbGw6bm9uZTtzdHJva2U6I2ZmZmZmZjtzdHJva2Utd2lkdGg6MS4yMzU5OTk5NDtzdHJva2UtbGluZWNhcDpyb3VuZDtzdHJva2UtbGluZWpvaW46cm91bmQ7c3Ryb2tlLW1pdGVybGltaXQ6MTAiIGQ9Im0gMzUwLjIzLDIxMS42NCBjIDAuMDgsMS41OSAtMC4zNCwyLjY2IC0wLjQsNC4zNSAtMC4wOCwyLjQ1IDEuMTcsNS4yNiAtMC43MSw4LjA2IiBjbGlwLXBhdGg9InVybCgjU1ZHSURfNl8pIiBpZD0icGF0aDYwNDM4IiBpbmtzY2FwZTpjb25uZWN0b3ItY3VydmF0dXJlPSIwIi8+JiN4YTsJPC9nPiYjeGE7PC9nPiYjeGE7PC9zdmc+;fontSize=17;" vertex="1" parent="1">
          <mxGeometry x="769" y="-380.52" width="43" height="44" as="geometry" />
        </mxCell>
        <mxCell id="kkqo6Z0dC3-RWE58HF3n-21" value="" style="aspect=fixed;points=[];align=center;image;fontSize=12;image=img/lib/azure2/app_services/App_Service_Domains.svg;html=1;" vertex="1" parent="1">
          <mxGeometry x="425" y="-301" width="75" height="60" as="geometry" />
        </mxCell>
        <mxCell id="kkqo6Z0dC3-RWE58HF3n-23" value="APP /&amp;nbsp; STRAPI" style="text;strokeColor=none;fillColor=none;html=1;fontSize=12;fontStyle=1;verticalAlign=middle;align=center;" vertex="1" parent="1">
          <mxGeometry x="436.25" y="-238.5" width="52.5" height="20" as="geometry" />
        </mxCell>
        <mxCell id="kkqo6Z0dC3-RWE58HF3n-26" value="" style="endArrow=classic;html=1;rounded=0;fontSize=12;" edge="1" parent="1" source="UEzPUAAOIrF-is8g5C7q-179" target="kkqo6Z0dC3-RWE58HF3n-20">
          <mxGeometry width="50" height="50" relative="1" as="geometry">
            <mxPoint x="560" y="-392" as="sourcePoint" />
            <mxPoint x="610" y="-442" as="targetPoint" />
          </mxGeometry>
        </mxCell>
        <mxCell id="kkqo6Z0dC3-RWE58HF3n-27" value="Elasticsearch + Kibana" style="text;strokeColor=none;fillColor=none;html=1;fontSize=12;fontStyle=1;verticalAlign=middle;align=center;" vertex="1" parent="1">
          <mxGeometry x="770" y="-238.5" width="52.5" height="20" as="geometry" />
        </mxCell>
        <mxCell id="kkqo6Z0dC3-RWE58HF3n-28" value="" style="verticalLabelPosition=bottom;html=1;verticalAlign=top;align=center;strokeColor=none;fillColor=#00BEF2;shape=mxgraph.azure.code_file;pointerEvents=1;fontSize=12;" vertex="1" parent="1">
          <mxGeometry x="647.5" y="-445.52" width="47.5" height="50" as="geometry" />
        </mxCell>
        <mxCell id="kkqo6Z0dC3-RWE58HF3n-29" value="SonarQube" style="text;strokeColor=none;fillColor=none;html=1;fontSize=12;fontStyle=1;verticalAlign=middle;align=center;" vertex="1" parent="1">
          <mxGeometry x="647.5" y="-469" width="52.5" height="20" as="geometry" />
        </mxCell>
        <mxCell id="kkqo6Z0dC3-RWE58HF3n-30" value="" style="endArrow=classic;html=1;rounded=0;fontSize=12;" edge="1" parent="1" source="UEzPUAAOIrF-is8g5C7q-179" target="kkqo6Z0dC3-RWE58HF3n-28">
          <mxGeometry width="50" height="50" relative="1" as="geometry">
            <mxPoint x="560" y="-322" as="sourcePoint" />
            <mxPoint x="610" y="-372" as="targetPoint" />
          </mxGeometry>
        </mxCell>
        <mxCell id="kkqo6Z0dC3-RWE58HF3n-38" value="VPC" style="points=[[0,0],[0.25,0],[0.5,0],[0.75,0],[1,0],[1,0.25],[1,0.5],[1,0.75],[1,1],[0.75,1],[0.5,1],[0.25,1],[0,1],[0,0.75],[0,0.5],[0,0.25]];outlineConnect=0;gradientColor=none;html=1;whiteSpace=wrap;fontSize=12;fontStyle=0;container=1;pointerEvents=0;collapsible=0;recursiveResize=0;shape=mxgraph.aws4.group;grIcon=mxgraph.aws4.group_vpc;strokeColor=#248814;fillColor=none;verticalAlign=top;align=left;spacingLeft=30;fontColor=#AAB7B8;dashed=0;" vertex="1" parent="1">
          <mxGeometry x="200" y="-590" width="820" height="430" as="geometry" />
        </mxCell>
        <mxCell id="kkqo6Z0dC3-RWE58HF3n-6" value="" style="sketch=0;aspect=fixed;html=1;points=[];align=center;image;fontSize=12;image=img/lib/mscae/Docker.svg;" vertex="1" parent="kkqo6Z0dC3-RWE58HF3n-38">
          <mxGeometry x="377" y="111" width="25.61" height="21" as="geometry" />
        </mxCell>
        <mxCell id="kkqo6Z0dC3-RWE58HF3n-48" value="" style="editableCssRules=.*;shape=image;verticalLabelPosition=bottom;labelBackgroundColor=#ffffff;verticalAlign=top;aspect=fixed;imageAspect=0;image=data:image/svg+xml,PHN2ZyB4bWxucz0iaHR0cDovL3d3dy53My5vcmcvMjAwMC9zdmciIHhtbG5zOnY9Imh0dHBzOi8vdmVjdGEuaW8vbmFubyIgd2lkdGg9IjIwIiBoZWlnaHQ9IjIwIiB2aWV3Qm94PSIwIDAgMjAgMjAiPiYjeGE7CTxzdHlsZSB0eXBlPSJ0ZXh0L2NzcyI+JiN4YTsJLnN0MHtmaWxsOiM0Mjg1ZjQ7fSYjeGE7CS5zdDF7ZmlsbDojNjY5ZGY2O30mI3hhOwk8L3N0eWxlPiYjeGE7CTxwYXRoIGNsYXNzPSJzdDEiIGQ9Ik0wIDE1bDUgNWg1bC0yLjUtMi44Nkg2LjI1bC0zLjM5LTMuMzl2LTcuNWwzLjM5LTMuMzlINy41TDEwIDBINUwwIDV6TTEzLjc1IDIuODZsMy4zOSAzLjM5djcuNWwtMy4zOSAzLjM5SDEwTDEyLjUgMjBIMTVsNS01VjVsLTUtNWgtMi41TDEwIDIuODZ6IiBmaWxsLXJ1bGU9ImV2ZW5vZGQiLz4mI3hhOwk8cGF0aCBjbGFzcz0ic3QwIiBkPSJNMTAgMTBMNy41IDcuNSAxMCA1SDcuNUw1IDcuNXY1TDcuNSAxNUgxMGwtMi41LTIuNXptMi41IDBMMTAgMTIuNWwyLjUgMi41IDIuNS0yLjV2LTVMMTIuNSA1IDEwIDcuNXoiIGZpbGwtcnVsZT0iZXZlbm9kZCIvPiYjeGE7PC9zdmc+;fontSize=12;html=1;" vertex="1" parent="kkqo6Z0dC3-RWE58HF3n-38">
          <mxGeometry x="341.5" y="320" width="65" height="65" as="geometry" />
        </mxCell>
        <mxCell id="kkqo6Z0dC3-RWE58HF3n-49" value="Sentry" style="text;strokeColor=none;fillColor=none;html=1;fontSize=12;fontStyle=1;verticalAlign=middle;align=center;" vertex="1" parent="kkqo6Z0dC3-RWE58HF3n-38">
          <mxGeometry x="347.75" y="385" width="52.5" height="20" as="geometry" />
        </mxCell>
        <mxCell id="kkqo6Z0dC3-RWE58HF3n-51" value="" style="aspect=fixed;perimeter=ellipsePerimeter;html=1;align=center;shadow=0;dashed=0;spacingTop=3;image;image=img/lib/active_directory/wiki_site.svg;labelBackgroundColor=default;fontSize=12;" vertex="1" parent="kkqo6Z0dC3-RWE58HF3n-38">
          <mxGeometry x="220" y="220" width="50" height="50" as="geometry" />
        </mxCell>
        <mxCell id="kkqo6Z0dC3-RWE58HF3n-52" value="Wiki.JS" style="text;strokeColor=none;fillColor=none;html=1;fontSize=12;fontStyle=1;verticalAlign=middle;align=center;" vertex="1" parent="kkqo6Z0dC3-RWE58HF3n-38">
          <mxGeometry x="190" y="256" width="52.5" height="20" as="geometry" />
        </mxCell>
        <mxCell id="kkqo6Z0dC3-RWE58HF3n-24" value="Postgres DB + PgAdmin" style="text;strokeColor=none;fillColor=none;html=1;fontSize=12;fontStyle=1;verticalAlign=middle;align=center;" vertex="1" parent="kkqo6Z0dC3-RWE58HF3n-38">
          <mxGeometry x="560" y="150" width="52.5" height="20" as="geometry" />
        </mxCell>
        <mxCell id="kkqo6Z0dC3-RWE58HF3n-59" value="" style="sketch=0;aspect=fixed;html=1;points=[];align=center;image;fontSize=12;image=img/lib/mscae/Docker.svg;" vertex="1" parent="kkqo6Z0dC3-RWE58HF3n-38">
          <mxGeometry x="212.19" y="153" width="57.81" height="47.4" as="geometry" />
        </mxCell>
        <mxCell id="kkqo6Z0dC3-RWE58HF3n-61" value="Portainer" style="text;strokeColor=none;fillColor=none;html=1;fontSize=12;fontStyle=1;verticalAlign=middle;align=center;" vertex="1" parent="kkqo6Z0dC3-RWE58HF3n-38">
          <mxGeometry x="214.84" y="200" width="52.5" height="20" as="geometry" />
        </mxCell>
        <mxCell id="kkqo6Z0dC3-RWE58HF3n-63" value="" style="aspect=fixed;html=1;points=[];align=center;image;fontSize=12;image=img/lib/azure2/management_governance/Monitor.svg;labelBackgroundColor=default;" vertex="1" parent="kkqo6Z0dC3-RWE58HF3n-38">
          <mxGeometry x="307.5" y="77" width="34" height="34" as="geometry" />
        </mxCell>
        <mxCell id="kkqo6Z0dC3-RWE58HF3n-65" value="Prometheus" style="text;strokeColor=none;fillColor=none;html=1;fontSize=12;fontStyle=1;verticalAlign=middle;align=center;" vertex="1" parent="kkqo6Z0dC3-RWE58HF3n-38">
          <mxGeometry x="247" y="70" width="52.5" height="20" as="geometry" />
        </mxCell>
        <mxCell id="kkqo6Z0dC3-RWE58HF3n-69" value="" style="sketch=0;outlineConnect=0;fontColor=#232F3E;gradientColor=none;fillColor=#4D27AA;strokeColor=none;dashed=0;verticalLabelPosition=bottom;verticalAlign=top;align=center;html=1;fontSize=12;fontStyle=0;aspect=fixed;pointerEvents=1;shape=mxgraph.aws4.msk_amazon_msk_connect;labelBackgroundColor=default;" vertex="1" parent="kkqo6Z0dC3-RWE58HF3n-38">
          <mxGeometry x="612.5" y="41.5" width="78" height="77" as="geometry" />
        </mxCell>
        <mxCell id="kkqo6Z0dC3-RWE58HF3n-71" value="Kiali" style="text;strokeColor=none;fillColor=none;html=1;fontSize=12;fontStyle=1;verticalAlign=middle;align=center;" vertex="1" parent="kkqo6Z0dC3-RWE58HF3n-38">
          <mxGeometry x="682.5" y="91" width="52.5" height="20" as="geometry" />
        </mxCell>
        <mxCell id="kkqo6Z0dC3-RWE58HF3n-72" value="Jeagger" style="text;strokeColor=none;fillColor=none;html=1;fontSize=12;fontStyle=1;verticalAlign=middle;align=center;" vertex="1" parent="kkqo6Z0dC3-RWE58HF3n-38">
          <mxGeometry x="560" y="91" width="52.5" height="20" as="geometry" />
        </mxCell>
        <mxCell id="kkqo6Z0dC3-RWE58HF3n-73" value="Istio" style="text;strokeColor=none;fillColor=none;html=1;fontSize=12;fontStyle=1;verticalAlign=middle;align=center;" vertex="1" parent="kkqo6Z0dC3-RWE58HF3n-38">
          <mxGeometry x="600" y="40" width="52.5" height="20" as="geometry" />
        </mxCell>
        <mxCell id="kkqo6Z0dC3-RWE58HF3n-39" value="" style="sketch=0;aspect=fixed;pointerEvents=1;shadow=0;dashed=0;html=1;strokeColor=none;labelPosition=center;verticalLabelPosition=bottom;verticalAlign=top;align=center;fillColor=#00188D;shape=mxgraph.mscae.enterprise.tool;fontSize=12;" vertex="1" parent="1">
          <mxGeometry x="360" y="-680" width="50" height="45" as="geometry" />
        </mxCell>
        <mxCell id="kkqo6Z0dC3-RWE58HF3n-40" value="" style="sketch=0;aspect=fixed;pointerEvents=1;shadow=0;dashed=0;html=1;strokeColor=none;labelPosition=center;verticalLabelPosition=bottom;verticalAlign=top;align=center;fillColor=#00188D;shape=mxgraph.mscae.enterprise.tool;fontSize=12;" vertex="1" parent="1">
          <mxGeometry x="733" y="-680" width="50" height="45" as="geometry" />
        </mxCell>
        <mxCell id="kkqo6Z0dC3-RWE58HF3n-41" value="Ansible (Configurar infra provisionada)" style="text;strokeColor=none;fillColor=none;html=1;fontSize=17;fontStyle=1;verticalAlign=middle;align=center;" vertex="1" parent="1">
          <mxGeometry x="580" y="-720" width="330" height="40" as="geometry" />
        </mxCell>
        <mxCell id="kkqo6Z0dC3-RWE58HF3n-42" value="Terraform (Provisionar Infra)" style="text;strokeColor=none;fillColor=none;html=1;fontSize=17;fontStyle=1;verticalAlign=middle;align=center;" vertex="1" parent="1">
          <mxGeometry x="221.75" y="-720" width="330" height="40" as="geometry" />
        </mxCell>
        <mxCell id="kkqo6Z0dC3-RWE58HF3n-43" value="Instância / Droplet / EC2" style="text;strokeColor=none;fillColor=none;html=1;fontSize=17;fontStyle=1;verticalAlign=middle;align=center;" vertex="1" parent="1">
          <mxGeometry x="466.5" y="-555.9200000000001" width="215" height="17.96" as="geometry" />
        </mxCell>
        <mxCell id="kkqo6Z0dC3-RWE58HF3n-44" value="" style="endArrow=classic;html=1;rounded=0;fontSize=12;exitX=0.49;exitY=0.36;exitDx=0;exitDy=0;exitPerimeter=0;" edge="1" parent="1" source="kkqo6Z0dC3-RWE58HF3n-39" target="kkqo6Z0dC3-RWE58HF3n-7">
          <mxGeometry width="50" height="50" relative="1" as="geometry">
            <mxPoint x="460" y="-420" as="sourcePoint" />
            <mxPoint x="510" y="-470" as="targetPoint" />
          </mxGeometry>
        </mxCell>
        <mxCell id="kkqo6Z0dC3-RWE58HF3n-45" value="" style="endArrow=classic;html=1;rounded=0;fontSize=12;exitX=0.34;exitY=0.5;exitDx=0;exitDy=0;exitPerimeter=0;" edge="1" parent="1" source="kkqo6Z0dC3-RWE58HF3n-40" target="kkqo6Z0dC3-RWE58HF3n-7">
          <mxGeometry width="50" height="50" relative="1" as="geometry">
            <mxPoint x="460" y="-420" as="sourcePoint" />
            <mxPoint x="510" y="-470" as="targetPoint" />
          </mxGeometry>
        </mxCell>
        <mxCell id="kkqo6Z0dC3-RWE58HF3n-50" style="edgeStyle=orthogonalEdgeStyle;rounded=0;orthogonalLoop=1;jettySize=auto;html=1;fontSize=12;" edge="1" parent="1" source="kkqo6Z0dC3-RWE58HF3n-48" target="UEzPUAAOIrF-is8g5C7q-179">
          <mxGeometry relative="1" as="geometry" />
        </mxCell>
        <mxCell id="kkqo6Z0dC3-RWE58HF3n-53" style="edgeStyle=orthogonalEdgeStyle;rounded=0;orthogonalLoop=1;jettySize=auto;html=1;fontSize=12;" edge="1" parent="1" source="kkqo6Z0dC3-RWE58HF3n-51" target="UEzPUAAOIrF-is8g5C7q-179">
          <mxGeometry relative="1" as="geometry" />
        </mxCell>
        <mxCell id="kkqo6Z0dC3-RWE58HF3n-60" style="edgeStyle=orthogonalEdgeStyle;rounded=0;orthogonalLoop=1;jettySize=auto;html=1;fontSize=12;" edge="1" parent="1" source="kkqo6Z0dC3-RWE58HF3n-59" target="UEzPUAAOIrF-is8g5C7q-179">
          <mxGeometry relative="1" as="geometry" />
        </mxCell>
        <mxCell id="kkqo6Z0dC3-RWE58HF3n-64" style="edgeStyle=orthogonalEdgeStyle;rounded=0;orthogonalLoop=1;jettySize=auto;html=1;fontSize=12;" edge="1" parent="1" source="kkqo6Z0dC3-RWE58HF3n-63" target="UEzPUAAOIrF-is8g5C7q-179">
          <mxGeometry relative="1" as="geometry" />
        </mxCell>
        <mxCell id="kkqo6Z0dC3-RWE58HF3n-70" style="edgeStyle=orthogonalEdgeStyle;rounded=0;orthogonalLoop=1;jettySize=auto;html=1;fontSize=12;" edge="1" parent="1" source="kkqo6Z0dC3-RWE58HF3n-69" target="kkqo6Z0dC3-RWE58HF3n-7">
          <mxGeometry relative="1" as="geometry" />
        </mxCell>
      </root>
    </mxGraphModel>
  </diagram>
</mxfile>
